<svg xmlns="http://www.w3.org/2000/svg" viewBox="0 0 549.84 132"><defs><style>.cls-1{fill:#fff;}</style></defs><title>Sale50</title><g id="Layer_2" data-name="Layer 2"><g id="Layer_1-2" data-name="Layer 1"><g id="Layer0_0_MEMBER_0_MEMBER_0_FILL" data-name="Layer0 0 MEMBER 0 MEMBER 0 FILL"><path class="cls-1" d="M533.63,74.17H526.3l-29.55,53.5h7.43l29.45-53.5m-9.94,26.25a16.63,16.63,0,0,0-4,11.42A15.64,15.64,0,0,0,524,123.26a14.19,14.19,0,0,0,10.64,4.31,14.42,14.42,0,0,0,10.57-4.25q4.66-4.63,4.66-12.37a15.66,15.66,0,0,0-3.78-10.86q-4.06-4.53-11-4.53H535a14.34,14.34,0,0,0-11.3,4.85m11.08,2.8h.06q4.47,0,4.47,8.31a14.07,14.07,0,0,1-1.1,6.26,3.55,3.55,0,0,1-3.27,2.14,3.86,3.86,0,0,1-3.56-2.3,12.85,12.85,0,0,1-1.16-6,13.74,13.74,0,0,1,1.07-6,3.73,3.73,0,0,1,3.49-2.42M496.09,74H496a14.3,14.3,0,0,0-11.3,4.88,16.84,16.84,0,0,0-4,11.52A15.62,15.62,0,0,0,485,101.74,14.24,14.24,0,0,0,495.62,106a14.52,14.52,0,0,0,10.6-4.25q4.66-4.66,4.66-12.37a15.7,15.7,0,0,0-3.81-10.89q-4-4.53-11-4.53m-.31,7.68h.09a3.67,3.67,0,0,1,3.46,2.39,14.45,14.45,0,0,1,1,6q0,8.28-4.41,8.28a3.79,3.79,0,0,1-3.52-2.3,12.65,12.65,0,0,1-1.16-6,14.1,14.1,0,0,1,1-6A3.73,3.73,0,0,1,495.78,81.66Z"/></g><g id="Layer0_0_MEMBER_0_MEMBER_1_FILL" data-name="Layer0 0 MEMBER 0 MEMBER 1 FILL"><path class="cls-1" d="M345.09,56.39a55.59,55.59,0,0,0-7.24.35l2.42-17.25h43.45V17.94H322l-7.43,58.82a103.61,103.61,0,0,1,15.2-1q31.56,0,31.56,18.63a14.69,14.69,0,0,1-7.14,13q-6.23,4.09-15.29,4.09a61.62,61.62,0,0,1-14.6-1.86,53.89,53.89,0,0,1-10.76-3.68l-4.66,19.67A52.8,52.8,0,0,0,321.71,130a84.76,84.76,0,0,0,18.38,2q21.87,0,35.4-11.83,12.74-11.14,12.74-27.5a37,37,0,0,0-3.65-16.84,29.42,29.42,0,0,0-10-11.27,41.18,41.18,0,0,0-13.72-6.2A62.43,62.43,0,0,0,345.09,56.39Z"/></g><g id="Layer0_0_MEMBER_0_MEMBER_2_FILL" data-name="Layer0 0 MEMBER 0 MEMBER 2 FILL"><path class="cls-1" d="M466.45,115.71Q477,100.35,477,73.48q0-25.11-9.6-40.22Q456.51,16,435.3,16q-20.86,0-32.25,16.9-10.51,15.58-10.51,41.22.13,25.43,10.13,40.78,11.08,17,31.75,17,20.86,0,32-16.24M435,35.87q7.87,0,11.86,9.66t4,28.29q0,19-4,28.73-4,9.57-11.67,9.57t-12-9.35q-4.37-9.72-4.25-28.61-.13-18.94,4.34-28.92Q427.44,35.87,435,35.87Z"/></g><g id="Layer0_0_MEMBER_1_MEMBER_0_FILL" data-name="Layer0 0 MEMBER 1 MEMBER 0 FILL"><path class="cls-1" d="M2.87,41.08a38.27,38.27,0,0,0,5.28,20q5.28,9.22,16.5,14A90.35,90.35,0,0,0,34.8,79l11.89,4.41q9.68,3.27,14.63,8.15a16.27,16.27,0,0,1,4.74,11.89,19.36,19.36,0,0,1-5.61,14.3q-5.61,5.61-16,5.61a26.37,26.37,0,0,1-13.76-3.54,42.66,42.66,0,0,1-10.49-9.35,68.91,68.91,0,0,1-8-12.22A108.79,108.79,0,0,1,6.61,85.1H0l.87,43.49H7.48l5.28-5.95a72.39,72.39,0,0,0,14.76,6.41A60,60,0,0,0,46.22,132a56.49,56.49,0,0,0,18.84-2.94,43.53,43.53,0,0,0,14.23-8.28,37.25,37.25,0,0,0,9-12.09,36.75,36.75,0,0,0,3.41-15.1q0-12.42-5.94-20.91-5.41-7.95-17-13.09-4.27-1.8-10.55-4.07L46.69,51.3q-9.82-3.61-14.43-8.15A15.92,15.92,0,0,1,27.65,31.4,17.64,17.64,0,0,1,33.13,18.5q5.08-5.08,13.56-5.08A23.78,23.78,0,0,1,58.24,16.3a37.18,37.18,0,0,1,8.68,7.82,50.09,50.09,0,0,1,6.61,11.56q3.74,8.82,5.41,13.56h6.61L84.89,8.15H78.28l-4.74,5.08A69.3,69.3,0,0,0,61.11,7.62,53.54,53.54,0,0,0,43.95,4.94,47,47,0,0,0,26.85,8a38.94,38.94,0,0,0-13.09,7.75A36.44,36.44,0,0,0,5.61,27.52,32.65,32.65,0,0,0,2.87,41.08m237.24,4.81A36,36,0,0,0,227,55.51a44.84,44.84,0,0,0-8.28,14.09,49.25,49.25,0,0,0-2.94,16.7,54.92,54.92,0,0,0,2.74,17.84,37,37,0,0,0,7.95,14.09,39.36,39.36,0,0,0,13.76,9.69q8.15,3.54,19.7,3.54A38.86,38.86,0,0,0,272,129.79,44.33,44.33,0,0,0,282.53,125a35,35,0,0,0,8.68-7.41,43.82,43.82,0,0,0,6.48-9l-5.81-4.74a38.7,38.7,0,0,1-10,11A20.64,20.64,0,0,1,269,119.24q-13.22,0-19.37-9.15-6.08-8.88-6.08-26.32h52.1V78.16a47.19,47.19,0,0,0-2-13.76A31.31,31.31,0,0,0,287.34,53,31.69,31.69,0,0,0,275.78,45q-7.15-2.87-17.7-2.87a41.69,41.69,0,0,0-18,3.74m7.28,9.62q3.61-6.61,9.55-6.61A8,8,0,0,1,262.69,51,11.76,11.76,0,0,1,266.23,57a24.67,24.67,0,0,1,1.54,8.68q.53,5.41.53,10.55l-24.78.33q.47-14.76,3.87-21.11m-83.22.2A22.37,22.37,0,0,0,156.76,47,33.59,33.59,0,0,0,145.34,43a83.76,83.76,0,0,0-13.56-1A48.46,48.46,0,0,0,120,43.49a40.8,40.8,0,0,0-11.15,3.87,27.75,27.75,0,0,0-8.48,6.15A12.82,12.82,0,0,0,97,62.19,11.93,11.93,0,0,0,100.39,71q3.34,3.54,9.62,3.54,4.81,0,6.81-1A13.63,13.63,0,0,0,120.89,71,7.8,7.8,0,0,0,123,67.4a18.81,18.81,0,0,0,.67-3.54,18,18,0,0,0-1.2-6.61L121.23,52a21.76,21.76,0,0,1,3.61-2,12,12,0,0,1,5.74-1.2,10.65,10.65,0,0,1,6.14,1.87,12.83,12.83,0,0,1,3.34,4.54,24.63,24.63,0,0,1,1.2,5.95l.33,13.76a83.16,83.16,0,0,1-14.23,5.28Q118.15,83,110.74,86.1a68.87,68.87,0,0,0-6.68,3.21,19.43,19.43,0,0,0-5.41,4.61,19.71,19.71,0,0,0-3.87,6.81,25.2,25.2,0,0,0-1.4,9.35q0,9.69,6.28,15.43a21.84,21.84,0,0,0,15.3,5.74,37.55,37.55,0,0,0,9.35-.8,31.68,31.68,0,0,0,6.95-2.87,24.19,24.19,0,0,0,5.28-3.41q.87-.67,5.08-4.94h.53a15.64,15.64,0,0,0,5.94,8.82q5.08,3.41,13.89,3.41h59.11v-6.28a15.44,15.44,0,0,1-4.07-.87L213.8,123a6.35,6.35,0,0,1-3.21-3.07,9.58,9.58,0,0,1-1.07-5.08l.2-113.49L208.52,0,169.65,2.2V8.48a18.48,18.48,0,0,1,5.41,1.2,20,20,0,0,1,4.74,2A10.37,10.37,0,0,1,183.08,16a17.9,17.9,0,0,1,1.14,5.95L184.08,116a10.35,10.35,0,0,1-.87,4.88A5.06,5.06,0,0,1,179.8,124a20.12,20.12,0,0,1-3.41.87h-1.67a13.13,13.13,0,0,1-4.07-.87,6.59,6.59,0,0,1-3.21-3.21,14.36,14.36,0,0,1-1.07-6.15q0-12.69.4-21.58l.33-22.71q0-8.88-2.94-14.63M133,86.31q4.41-2.07,8.62-3.61l-.33,28.72a18.46,18.46,0,0,1-4.74,4.74Q134,118,129.38,118a8.82,8.82,0,0,1-6.75-2.87q-2.74-3.21-2.74-9.69a20.55,20.55,0,0,1,1.67-8.68A18.82,18.82,0,0,1,126,90.71Q128,89.18,133,86.31Z"/></g><g id="Layer0_0_MEMBER_1_MEMBER_1_FILL" data-name="Layer0 0 MEMBER 1 MEMBER 1 FILL"><path class="cls-1" d="M288.48,43.43l-.17.17-.85,2.21L287,44.45l-.17-.85-.17-.17-.34-.17-.34.17-.17.34v.51l1.53,1.7-2.21-.51-.51.17-.17.34.17.51.51.17,2.21-.51-1.53,1.7v.34l.17.51h.68l.17-.17.68-2.21.85,2.21.17.17h.68l.17-.51-.17-.34-.85-.85-.51-.85,2.21.51.34-.17.17-.51-.17-.34-.34-.17L287.8,46l1-1.36a1.39,1.39,0,0,0,.51-.85l-.17-.34-.34-.17Z"/></g></g></g></svg>