<svg xmlns="http://www.w3.org/2000/svg" viewBox="0 0 166.23 134.42"><defs><style>.cls-1{fill:#f74902;}.cls-2{fill:#fff;}</style></defs><title>DLT</title><g id="Layer_2" data-name="Layer 2"><g id="Layer_1-2" data-name="Layer 1"><g id="Layer1_0_FILL" data-name="Layer1 0 FILL"><path d="M97.24,125.9l-.43.57a6.35,6.35,0,0,0-.57,1.42,11.72,11.72,0,0,0-.14,1.92q.07,1.35.14,1.92a6.35,6.35,0,0,0,.57,1.42l.43.57a1.9,1.9,0,0,0,.5.35,2.78,2.78,0,0,0,.57.21,3.59,3.59,0,0,0,1.42,0,2.78,2.78,0,0,0,.57-.21,1.9,1.9,0,0,0,.5-.35l.43-.57a6.41,6.41,0,0,0,.5-1.42,7.91,7.91,0,0,0,.21-1.92,6.1,6.1,0,0,0-.78-3.34,3.73,3.73,0,0,0-.36-.57,1.9,1.9,0,0,0-.5-.35,2.54,2.54,0,0,0-.64-.21,2.64,2.64,0,0,0-.64-.07,3.62,3.62,0,0,0-.71.07,2.78,2.78,0,0,0-.57.21,1.9,1.9,0,0,0-.5.35m-.07,3.9a7.32,7.32,0,0,1,.14-1.56,2.47,2.47,0,0,1,.36-1.14,1.46,1.46,0,0,1,.57-.71,1.28,1.28,0,0,1,.78-.21,1.49,1.49,0,0,1,.78.21,2.1,2.1,0,0,1,.57.71,4.61,4.61,0,0,1,.36,1.14,17.2,17.2,0,0,1,0,3.12,4.61,4.61,0,0,1-.36,1.14,1.71,1.71,0,0,1-.5.71,1.63,1.63,0,0,1-.85.21,1.49,1.49,0,0,1-.78-.21,1.46,1.46,0,0,1-.57-.71,2.47,2.47,0,0,1-.36-1.14,7.32,7.32,0,0,1-.14-1.56m-20,.64a3.73,3.73,0,0,0-.57-.92,3,3,0,0,0-.78-.57,2.51,2.51,0,0,0-1-.21,2.22,2.22,0,0,0-2.13,1.21,6.22,6.22,0,0,1,.43-1.42,7,7,0,0,1,.85-1.21,6,6,0,0,1,1.07-.85,3.84,3.84,0,0,1,1.21-.5l-.43-.78-.78.28-.71.43a8.28,8.28,0,0,0-1.42,1.21q-.28.35-.57.78a4.49,4.49,0,0,0-.43,1,7,7,0,0,0-.36,1.06,9.14,9.14,0,0,0-.07,1.14,3.61,3.61,0,0,0,.21,1.28,2.67,2.67,0,0,0,.64,1.06,2.42,2.42,0,0,0,1,.71,2.82,2.82,0,0,0,1.28.28,2.51,2.51,0,0,0,1-.21,3,3,0,0,0,.92-.64,2.16,2.16,0,0,0,.64-.92,2.86,2.86,0,0,0,.21-1.14,2.67,2.67,0,0,0-.21-1.06m-1,.43a3,3,0,0,1,.07.71,3.61,3.61,0,0,1-.07.71,3.73,3.73,0,0,1-.36.57,1.26,1.26,0,0,1-.57.35,1.41,1.41,0,0,1-.64.14,2.3,2.3,0,0,1-.85-.14,1.13,1.13,0,0,1-.64-.5,1.78,1.78,0,0,1-.43-.71,2.9,2.9,0,0,1-.14-.92,4.64,4.64,0,0,1,.28-.5.93.93,0,0,1,.43-.43,1.05,1.05,0,0,1,.5-.28,1.9,1.9,0,0,1,.71-.14,2.09,2.09,0,0,1,.78.14,3.73,3.73,0,0,1,.57.35,2.78,2.78,0,0,1,.36.64m-16.34-5.61h-.71L57,127l.57.78,1.28-1v7.52h1.07v-9m7,1.35a2.82,2.82,0,0,0-.43-.71,2,2,0,0,0-.78-.5,3.87,3.87,0,0,0-1.07-.14,2.91,2.91,0,0,0-.92.14,3.93,3.93,0,0,0-.78.35,4.65,4.65,0,0,0-.57.71,2.26,2.26,0,0,0-.28.85l.85.35a2.53,2.53,0,0,1,.21-.64,1.81,1.81,0,0,1,.43-.43,1.65,1.65,0,0,1,.43-.28,2.34,2.34,0,0,1,.57-.07,2.64,2.64,0,0,1,.64.07,2.82,2.82,0,0,1,.43.35.69.69,0,0,1,.28.43,2.33,2.33,0,0,1,.07.57,3.61,3.61,0,0,1-.07.71l-.28.71a8.87,8.87,0,0,1-1.07,1.63,36.28,36.28,0,0,1-2.56,2.7v.85H67.4v-1H63.28l2.13-2.13.64-.92a5.72,5.72,0,0,0,.5-.92,5.33,5.33,0,0,0,.36-.92,3.37,3.37,0,0,0,.14-.92,1.89,1.89,0,0,0-.21-.85M52.7,125.19a3.12,3.12,0,0,0-1.92.64,2.32,2.32,0,0,0-.71,1.7,3.61,3.61,0,0,0,.07.71q.14.35.28.64a2.47,2.47,0,0,0,.5.5,1.05,1.05,0,0,0,.5.28v.07a1.56,1.56,0,0,0-.64.28,2,2,0,0,0-.57.5,2.49,2.49,0,0,0-.36.71,3.61,3.61,0,0,0-.07.71,2.19,2.19,0,0,0,.21,1,1.74,1.74,0,0,0,.64.78,2.51,2.51,0,0,0,.92.5,3.41,3.41,0,0,0,1.21.21,3.22,3.22,0,0,0,1.14-.21,2.51,2.51,0,0,0,.92-.5,1.74,1.74,0,0,0,.64-.78,2.37,2.37,0,0,0,.21-1.06,4,4,0,0,0-.07-.78,1.89,1.89,0,0,0-.43-.64,2.47,2.47,0,0,0-.5-.5,2.23,2.23,0,0,0-.71-.28,3.73,3.73,0,0,0,.57-.35,2.47,2.47,0,0,0,.5-.5,1.56,1.56,0,0,0,.28-.64,2.64,2.64,0,0,0,.07-.64,2.9,2.9,0,0,0-.14-.92,2.45,2.45,0,0,0-.64-.78,2.93,2.93,0,0,0-1.92-.64m-1.42,1.92a1.05,1.05,0,0,1,.28-.5,4.65,4.65,0,0,1,.5-.28,3.29,3.29,0,0,1,.64-.07,2.64,2.64,0,0,1,.64.07,1.6,1.6,0,0,1,.57.28,1.05,1.05,0,0,1,.28.5,1.26,1.26,0,0,1,.14.57,2.33,2.33,0,0,1-.07.57,1.89,1.89,0,0,1-.36.5,2.82,2.82,0,0,1-.43.35,2.34,2.34,0,0,1-.57.07h-.36a1.58,1.58,0,0,1-.5-.07,1.86,1.86,0,0,1-.85-.85,2.33,2.33,0,0,1-.07-.57,1.26,1.26,0,0,1,.14-.57m-.28,4a1.89,1.89,0,0,1,.36-.5,3.73,3.73,0,0,1,.57-.35,1.9,1.9,0,0,1,.71-.14h.28a1.41,1.41,0,0,1,.64.14,3.15,3.15,0,0,1,.57.28,1.59,1.59,0,0,1,.5,1.21,1.41,1.41,0,0,1-.14.64,1.9,1.9,0,0,1-.36.5,2.78,2.78,0,0,1-.64.35,4,4,0,0,1-.78.07,3.62,3.62,0,0,1-.71-.07,2.78,2.78,0,0,1-.64-.35,1.9,1.9,0,0,1-.36-.5,1.51,1.51,0,0,1,0-1.28m-11.58.07a3.61,3.61,0,0,0-.07.71,2.19,2.19,0,0,0,.21,1,1.74,1.74,0,0,0,.64.78,2.51,2.51,0,0,0,.92.5,3.41,3.41,0,0,0,1.21.21,3.22,3.22,0,0,0,1.14-.21,2.51,2.51,0,0,0,.92-.5,1.74,1.74,0,0,0,.64-.78,2.37,2.37,0,0,0,.21-1.06,4,4,0,0,0-.07-.78,1.89,1.89,0,0,0-.43-.64,2.47,2.47,0,0,0-.5-.5,2.23,2.23,0,0,0-.71-.28,3.73,3.73,0,0,0,.57-.35,2.47,2.47,0,0,0,.5-.5,1.56,1.56,0,0,0,.28-.64,2.64,2.64,0,0,0,.07-.64,2.9,2.9,0,0,0-.14-.92,2.45,2.45,0,0,0-.64-.78,2.93,2.93,0,0,0-1.92-.64,3.12,3.12,0,0,0-1.92.64,2.32,2.32,0,0,0-.71,1.7,3.61,3.61,0,0,0,.07.71q.14.35.28.64a2.47,2.47,0,0,0,.5.5,1.05,1.05,0,0,0,.5.28v.07a1.56,1.56,0,0,0-.64.28,2,2,0,0,0-.57.5,2.49,2.49,0,0,0-.36.71m1.42-4.12a1.05,1.05,0,0,1,.28-.5,4.65,4.65,0,0,1,.5-.28,3.29,3.29,0,0,1,.64-.07,2.64,2.64,0,0,1,.64.07,1.6,1.6,0,0,1,.57.28,1.05,1.05,0,0,1,.28.5,1.26,1.26,0,0,1,.14.57,2.33,2.33,0,0,1-.07.57,1.89,1.89,0,0,1-.36.5,2.82,2.82,0,0,1-.43.35,2.34,2.34,0,0,1-.57.07h-.36a1.58,1.58,0,0,1-.5-.07,1.86,1.86,0,0,1-.85-.85,2.33,2.33,0,0,1-.07-.57,1.26,1.26,0,0,1,.14-.57m-.28,4a1.89,1.89,0,0,1,.36-.5,3.73,3.73,0,0,1,.57-.35,1.9,1.9,0,0,1,.71-.14h.28a1.41,1.41,0,0,1,.64.14,3.15,3.15,0,0,1,.57.28,1.59,1.59,0,0,1,.5,1.21,1.41,1.41,0,0,1-.14.64,1.89,1.89,0,0,1-.36.5,2.78,2.78,0,0,1-.64.35,4,4,0,0,1-.78.07,3.62,3.62,0,0,1-.71-.07,2.78,2.78,0,0,1-.64-.35,1.9,1.9,0,0,1-.36-.5,1.51,1.51,0,0,1,0-1.28m77.57-5.82H117l-3.69,6v.78h4.12v2.2h1v-2.2h1.28V131h-1.28v-2.48h-1V131h-2.77l3.48-5.68m7.6.5a2.93,2.93,0,0,0-1.92-.64,3.12,3.12,0,0,0-1.92.64,2.32,2.32,0,0,0-.71,1.7,3.61,3.61,0,0,0,.07.71q.14.35.28.64a2.47,2.47,0,0,0,.5.5,1.05,1.05,0,0,0,.5.28v.07a1.56,1.56,0,0,0-.64.28,2,2,0,0,0-.57.5,2.49,2.49,0,0,0-.36.71,3.61,3.61,0,0,0-.07.71,2.19,2.19,0,0,0,.21,1,1.74,1.74,0,0,0,.64.78,2.51,2.51,0,0,0,.92.5,3.41,3.41,0,0,0,1.21.21,3.22,3.22,0,0,0,1.14-.21,2.51,2.51,0,0,0,.92-.5,1.74,1.74,0,0,0,.64-.78,2.37,2.37,0,0,0,.21-1.06,4,4,0,0,0-.07-.78,1.89,1.89,0,0,0-.43-.64,2.47,2.47,0,0,0-.5-.5,2.23,2.23,0,0,0-.71-.28,3.73,3.73,0,0,0,.57-.35,2.47,2.47,0,0,0,.5-.5,1.56,1.56,0,0,0,.28-.64,2.64,2.64,0,0,0,.07-.64,2.9,2.9,0,0,0-.14-.92,2.45,2.45,0,0,0-.64-.78m-1.92.43a2.64,2.64,0,0,1,.64.07,1.6,1.6,0,0,1,.57.28,1.05,1.05,0,0,1,.28.5,1.26,1.26,0,0,1,.14.57,2.33,2.33,0,0,1-.07.57,1.89,1.89,0,0,1-.36.5,2.82,2.82,0,0,1-.43.35,2.34,2.34,0,0,1-.57.07h-.36a1.58,1.58,0,0,1-.5-.07,1.86,1.86,0,0,1-.85-.85,2.33,2.33,0,0,1-.07-.57,1.26,1.26,0,0,1,.14-.57,1.05,1.05,0,0,1,.28-.5,4.65,4.65,0,0,1,.5-.28,3.29,3.29,0,0,1,.64-.07m-1.7,4.9a1.89,1.89,0,0,1,.36-.5,3.73,3.73,0,0,1,.57-.35,1.9,1.9,0,0,1,.71-.14H124a1.41,1.41,0,0,1,.64.14,3.15,3.15,0,0,1,.57.28,1.59,1.59,0,0,1,.5,1.21,1.41,1.41,0,0,1-.14.64,1.89,1.89,0,0,1-.36.5,2.78,2.78,0,0,1-.64.35,4,4,0,0,1-.78.07,3.62,3.62,0,0,1-.71-.07,2.78,2.78,0,0,1-.64-.35,1.9,1.9,0,0,1-.36-.5,1.51,1.51,0,0,1,0-1.28m-13.85-5.32a2.93,2.93,0,0,0-1.92-.64,3.12,3.12,0,0,0-1.92.64,2.32,2.32,0,0,0-.71,1.7,3.61,3.61,0,0,0,.07.71q.14.35.28.64a2.47,2.47,0,0,0,.5.5,1.05,1.05,0,0,0,.5.28v.07a1.56,1.56,0,0,0-.64.28,2,2,0,0,0-.57.5,2.49,2.49,0,0,0-.36.71,3.61,3.61,0,0,0-.07.71,2.19,2.19,0,0,0,.21,1,1.74,1.74,0,0,0,.64.78,2.51,2.51,0,0,0,.92.5,3.41,3.41,0,0,0,1.21.21,3.22,3.22,0,0,0,1.14-.21,2.51,2.51,0,0,0,.92-.5,1.74,1.74,0,0,0,.64-.78,2.37,2.37,0,0,0,.21-1.06,4,4,0,0,0-.07-.78,1.89,1.89,0,0,0-.43-.64,2.47,2.47,0,0,0-.5-.5,2.23,2.23,0,0,0-.71-.28,3.73,3.73,0,0,0,.57-.35,2.47,2.47,0,0,0,.5-.5,1.56,1.56,0,0,0,.28-.64,2.64,2.64,0,0,0,.07-.64,2.9,2.9,0,0,0-.14-.92,2.45,2.45,0,0,0-.64-.78m-3.34,1.28a1.05,1.05,0,0,1,.28-.5,4.65,4.65,0,0,1,.5-.28,3.29,3.29,0,0,1,.64-.07,2.64,2.64,0,0,1,.64.07,1.6,1.6,0,0,1,.57.28,1.05,1.05,0,0,1,.28.5,1.26,1.26,0,0,1,.14.57,2.33,2.33,0,0,1-.07.57,1.89,1.89,0,0,1-.36.5,2.82,2.82,0,0,1-.43.35,2.34,2.34,0,0,1-.57.07h-.36a1.58,1.58,0,0,1-.5-.07,1.86,1.86,0,0,1-.85-.85,2.33,2.33,0,0,1-.07-.57,1.26,1.26,0,0,1,.14-.57m.64,3.19a1.9,1.9,0,0,1,.71-.14h.28a1.41,1.41,0,0,1,.64.14,3.15,3.15,0,0,1,.57.28,1.59,1.59,0,0,1,.5,1.21,1.41,1.41,0,0,1-.14.64,1.9,1.9,0,0,1-.36.5,2.78,2.78,0,0,1-.64.35,4,4,0,0,1-.78.07,3.62,3.62,0,0,1-.71-.07,2.78,2.78,0,0,1-.64-.35,1.9,1.9,0,0,1-.36-.5,1.51,1.51,0,0,1,0-1.28,1.89,1.89,0,0,1,.36-.5,3.73,3.73,0,0,1,.57-.35m-21,.71H83.32v-2.48h-1V131H79.55L83,125.33H81.9l-3.69,6v.78h4.12v2.2h1v-2.2H84.6V131m6.68-4.4a2.45,2.45,0,0,0-.64-.78,2.93,2.93,0,0,0-1.92-.64,3.12,3.12,0,0,0-1.92.64,2.32,2.32,0,0,0-.71,1.7,3.61,3.61,0,0,0,.07.71q.14.35.28.64a2.47,2.47,0,0,0,.5.5,1.05,1.05,0,0,0,.5.28v.07a1.56,1.56,0,0,0-.64.28,2,2,0,0,0-.57.5,2.49,2.49,0,0,0-.36.71,3.61,3.61,0,0,0-.07.71,2.19,2.19,0,0,0,.21,1,1.74,1.74,0,0,0,.64.78,2.51,2.51,0,0,0,.92.5,3.41,3.41,0,0,0,1.21.21,3.22,3.22,0,0,0,1.14-.21,2.51,2.51,0,0,0,.92-.5,1.74,1.74,0,0,0,.64-.78,2.37,2.37,0,0,0,.21-1.06,4,4,0,0,0-.07-.78,1.89,1.89,0,0,0-.43-.64,2.47,2.47,0,0,0-.5-.5,2.23,2.23,0,0,0-.71-.28,3.73,3.73,0,0,0,.57-.35,2.47,2.47,0,0,0,.5-.5,1.56,1.56,0,0,0,.28-.64,2.64,2.64,0,0,0,.07-.64,2.9,2.9,0,0,0-.14-.92m-3.69,0a4.65,4.65,0,0,1,.5-.28,3.29,3.29,0,0,1,.64-.07,2.64,2.64,0,0,1,.64.07,1.6,1.6,0,0,1,.57.28,1.05,1.05,0,0,1,.28.5,1.26,1.26,0,0,1,.14.57,2.33,2.33,0,0,1-.07.57,1.89,1.89,0,0,1-.36.5,2.82,2.82,0,0,1-.43.35,2.34,2.34,0,0,1-.57.07h-.36a1.58,1.58,0,0,1-.5-.07,1.86,1.86,0,0,1-.85-.85,2.33,2.33,0,0,1-.07-.57,1.26,1.26,0,0,1,.14-.57,1.05,1.05,0,0,1,.28-.5M87,131.15a1.89,1.89,0,0,1,.36-.5,3.73,3.73,0,0,1,.57-.35,1.9,1.9,0,0,1,.71-.14h.28a1.41,1.41,0,0,1,.64.14,3.15,3.15,0,0,1,.57.28,1.59,1.59,0,0,1,.5,1.21,1.41,1.41,0,0,1-.14.64,1.9,1.9,0,0,1-.36.5,2.78,2.78,0,0,1-.64.35,4,4,0,0,1-.78.07,3.62,3.62,0,0,1-.71-.07,2.78,2.78,0,0,1-.64-.35,1.9,1.9,0,0,1-.36-.5,1.51,1.51,0,0,1,0-1.28M59.66,113.34a3.41,3.41,0,0,0-1.21.21,2.16,2.16,0,0,0-.92.64,2.76,2.76,0,0,0-.64,1,4.14,4.14,0,0,0-.14,1.14,3,3,0,0,0,.78,2.2,2.76,2.76,0,0,0,1,.64,3.62,3.62,0,0,0,1.28.21,3.41,3.41,0,0,0,1.21-.21,2.55,2.55,0,0,0,.92-.57l-.28-.78a2.52,2.52,0,0,1-.78.43,3.15,3.15,0,0,1-1,.14,4,4,0,0,1-.78-.07,2.78,2.78,0,0,1-.64-.35,3,3,0,0,1-.43-.57,1.58,1.58,0,0,1-.14-.71h4.4l.07-.71a2.67,2.67,0,0,0-.21-1.06,1.75,1.75,0,0,0-.57-.78,1.7,1.7,0,0,0-.85-.57,2.68,2.68,0,0,0-1.07-.21m.64,1.06a4.64,4.64,0,0,1,.5.28,1.89,1.89,0,0,1,.36.5,1.41,1.41,0,0,1,.14.64H57.81a.94.94,0,0,1,.21-.57,1.89,1.89,0,0,1,.36-.5,1.67,1.67,0,0,1,.57-.35,3,3,0,0,1,.71-.07,2.64,2.64,0,0,1,.64.07M69,119.23v-5.75H67.9v2.34H64.7v-2.34h-1v5.75h1v-2.41h3.2v2.41H69m2.77-5.75h-1v5.75h1v-2.41h3.2v2.41H76v-5.75H74.93v2.34h-3.2v-2.34m9.66.43a1.27,1.27,0,0,0-.64-.43,3.15,3.15,0,0,0-1-.14,3.87,3.87,0,0,0-1.07.14,3.59,3.59,0,0,0-.85.43l.21.78a3.16,3.16,0,0,1,.78-.28,2.68,2.68,0,0,1,.85-.14,1.41,1.41,0,0,1,.64.14.68.68,0,0,1,.36.28,2.77,2.77,0,0,1,.21.57l.07.85a1.56,1.56,0,0,0-.64-.28,4,4,0,0,0-.78-.07,5.63,5.63,0,0,0-.92.07,2.78,2.78,0,0,0-.64.35,5.33,5.33,0,0,0-.5.57,2.22,2.22,0,0,0,0,1.56,1.89,1.89,0,0,0,.36.5.91.91,0,0,0,.57.35,1.58,1.58,0,0,0,.71.14,2.68,2.68,0,0,0,1.07-.21,3,3,0,0,0,.78-.57v.71h1v-3.55a3.14,3.14,0,0,0-.14-1,2.51,2.51,0,0,0-.43-.78m-1,2.77A1.6,1.6,0,0,1,81,117v.71a1.74,1.74,0,0,1-1.49.71,1.28,1.28,0,0,1-.78-.21,1.15,1.15,0,0,1-.21-.71.7.7,0,0,1,.36-.64,1.16,1.16,0,0,1,.85-.28,1.9,1.9,0,0,1,.71.14m-43.83-3.19H35.51v2.34h-3.2v-2.34h-1v5.75h1v-2.41h3.2v2.41h1.07v-5.75m6,.07a2.51,2.51,0,0,0-.92.5,2,2,0,0,0-.57.78,2.21,2.21,0,0,0-.36.92H39.41v-2.27H38.35v5.75h1.07v-2.41h1.28a3.06,3.06,0,0,0,.28,1,2.25,2.25,0,0,0,.64.85,1.94,1.94,0,0,0,.85.5,2.86,2.86,0,0,0,1.14.21,3.41,3.41,0,0,0,1.21-.21,3,3,0,0,0,.92-.64,2.76,2.76,0,0,0,.64-1,3.06,3.06,0,0,0,.21-1.21,2.86,2.86,0,0,0-.21-1.14,2.76,2.76,0,0,0-.64-1,2.16,2.16,0,0,0-.92-.64,3.41,3.41,0,0,0-1.21-.21,2.68,2.68,0,0,0-1.07.21M45,114.9a2.78,2.78,0,0,1,.36.64,2.08,2.08,0,0,1,.14.78,2.29,2.29,0,0,1-.14.85,2.78,2.78,0,0,1-.36.64,3.73,3.73,0,0,1-.57.35,2.09,2.09,0,0,1-.78.14,1.9,1.9,0,0,1-.71-.14,1.67,1.67,0,0,1-.57-.35,1.89,1.89,0,0,1-.43-.64,4.41,4.41,0,0,1-.07-.85,4,4,0,0,1,.07-.78,1.89,1.89,0,0,1,.43-.64,1.67,1.67,0,0,1,.57-.35,1.9,1.9,0,0,1,.71-.14,2.09,2.09,0,0,1,.78.14,3.73,3.73,0,0,1,.57.35m7.17-1.42h-1v4.76H49v-4.76H48v5.75h7.32v-5.75H54.26v4.76H52.13v-4.76M8,111.28v-1H3v8.94l2.13.07a4.73,4.73,0,0,0,1.49-.21,2.6,2.6,0,0,0,1.07-.57,2.25,2.25,0,0,0,.64-.85,2.66,2.66,0,0,0,.28-1.21,2.86,2.86,0,0,0-.21-1.14,2.25,2.25,0,0,0-.64-.85,4.87,4.87,0,0,0-1-.5,5.62,5.62,0,0,0-1.35-.14q-.64,0-1.35.07v-2.63H8m-1.07,4a1.67,1.67,0,0,1,.36.57,1.84,1.84,0,0,1,0,1.42,1.67,1.67,0,0,1-.36.57,2.49,2.49,0,0,1-.71.35,5.63,5.63,0,0,1-.92.07H4V114.9l1.35-.07a2.3,2.3,0,0,1,.85.14,1.6,1.6,0,0,1,.71.28m17.62-1.06a3.37,3.37,0,0,0-.57,3.34,3.4,3.4,0,0,0,.57,1,3.23,3.23,0,0,0,2.27.85,3.41,3.41,0,0,0,1.21-.21,2.78,2.78,0,0,0,1.63-1.63,3.06,3.06,0,0,0,.21-1.21,2.86,2.86,0,0,0-.21-1.14A2.78,2.78,0,0,0,28,113.55a3.41,3.41,0,0,0-1.21-.21,3.62,3.62,0,0,0-1.28.21,2.76,2.76,0,0,0-1,.64m.43,3a2.29,2.29,0,0,1-.14-.85,2.08,2.08,0,0,1,.14-.78,1.89,1.89,0,0,1,.43-.64,2.06,2.06,0,0,1,2.84,0,1.89,1.89,0,0,1,.43.64,2.08,2.08,0,0,1,.14.78,2.29,2.29,0,0,1-.14.85,2,2,0,0,1-1.07,1.06,2.22,2.22,0,0,1-1.56,0A2,2,0,0,1,25,117.17m-13.5,1.35a.61.61,0,0,0-.21-.43.69.69,0,0,0-1,0,.48.48,0,0,0-.21.43.77.77,0,0,0,.21.57.69.69,0,0,0,1,0,.77.77,0,0,0,.21-.57m5.83-8.23H16.26v8.94h1.07v-8.94m5.47,0H21.51l-4,4.26,4,4.68H23l-4.19-4.76,4-4.19m129.29,7.59a.68.68,0,0,0-.5.21.48.48,0,0,0-.21.43.77.77,0,0,0,.21.57.69.69,0,0,0,1,0,.77.77,0,0,0,.21-.57.61.61,0,0,0-.21-.43.68.68,0,0,0-.5-.21m-7.6-7.59h-1v7.38a3,3,0,0,0,.07.71,1.08,1.08,0,0,0,.28.57.68.68,0,0,0,.36.28,2.34,2.34,0,0,0,.57.07,4,4,0,0,0,.78-.07,3.73,3.73,0,0,0,.57-.35l-.21-.78a1.14,1.14,0,0,1-.71.28.51.51,0,0,1-.5-.28,1.41,1.41,0,0,1-.21-.85v-7m3.62,3.19v-1.63H147V117a3.14,3.14,0,0,0,.14,1,1.6,1.6,0,0,0,.28.71,1.29,1.29,0,0,0,.57.43,2.3,2.3,0,0,0,.85.14,4,4,0,0,0,.78-.07,2.78,2.78,0,0,0,.64-.35L150,118a1.42,1.42,0,0,1-.92.35,1,1,0,0,1-.78-.35,2.11,2.11,0,0,1-.21-1.06v-2.48h2.06v-1H148.1m8.67-.07a2.3,2.3,0,0,0-.85.14,2.05,2.05,0,0,0-.64.64v-.71h-1v5.75h1v-4a1.5,1.5,0,0,1,.57-.64,1,1,0,0,1,.64-.21,1.49,1.49,0,0,1,.78.21l.36-.92a1.41,1.41,0,0,0-.85-.21m6.89.07h-1v4a1.74,1.74,0,0,1-.78.64,2,2,0,0,1-.92.21,2.64,2.64,0,0,1-.64-.07,1.07,1.07,0,0,1-.43-.35,1.05,1.05,0,0,1-.28-.5,4,4,0,0,1-.07-.78v-3.19h-1.07v3.41a3.41,3.41,0,0,0,.14,1.06,1.77,1.77,0,0,0,.43.78,3.3,3.3,0,0,0,.64.5,2.91,2.91,0,0,0,.92.14,2.25,2.25,0,0,0,1.14-.28,2.83,2.83,0,0,0,.92-.71v.85h1v-5.75M115,110.71a4.65,4.65,0,0,0-.57.71,2.26,2.26,0,0,0-.28.85l.85.35a2.53,2.53,0,0,1,.21-.64,1.81,1.81,0,0,1,.43-.43,1.65,1.65,0,0,1,.43-.28,2.34,2.34,0,0,1,.57-.07,2.64,2.64,0,0,1,.64.07,2.82,2.82,0,0,1,.43.35.69.69,0,0,1,.28.43,2.33,2.33,0,0,1,.07.57,3.61,3.61,0,0,1-.07.71l-.28.71a8.87,8.87,0,0,1-1.07,1.63,36.29,36.29,0,0,1-2.56,2.7v.85h5.47v-1h-4.12l2.13-2.13.64-.92a5.72,5.72,0,0,0,.5-.92,5.33,5.33,0,0,0,.36-.92,3.37,3.37,0,0,0,.14-.92,1.89,1.89,0,0,0-.21-.85,2.82,2.82,0,0,0-.43-.71,2,2,0,0,0-.78-.5,3.87,3.87,0,0,0-1.07-.14,2.91,2.91,0,0,0-.92.14,3.93,3.93,0,0,0-.78.35m6.82-.21a2,2,0,0,0-.57.5l-.43.57.57.71a2,2,0,0,1,1.85-1.06,2.64,2.64,0,0,1,.64.07.69.69,0,0,1,.43.28,1.12,1.12,0,0,1,.28.43,1.41,1.41,0,0,1,.14.64,1.26,1.26,0,0,1-.14.57.89.89,0,0,1-.36.5,1.9,1.9,0,0,1-.5.35,2.34,2.34,0,0,1-.57.07h-.64v1.06h.71a4,4,0,0,1,.78.07,3.73,3.73,0,0,1,.57.35,1.89,1.89,0,0,1,.36.5,1.51,1.51,0,0,1,0,1.28,1.89,1.89,0,0,1-.36.5,1.67,1.67,0,0,1-.57.35,3,3,0,0,1-.71.07,2.64,2.64,0,0,1-.64-.07,2.78,2.78,0,0,1-.57-.21,1.41,1.41,0,0,1-.5-.43,1.89,1.89,0,0,1-.36-.5l-.64.71a7.48,7.48,0,0,0,.43.64,3.3,3.3,0,0,0,.64.5,2.21,2.21,0,0,0,.78.28,2.68,2.68,0,0,0,.85.14,2.86,2.86,0,0,0,1.14-.21,2.51,2.51,0,0,0,.92-.5,2.72,2.72,0,0,0,.78-1.92A2.49,2.49,0,0,0,126,116a1.56,1.56,0,0,0-.28-.64,5.33,5.33,0,0,0-.57-.5,4.05,4.05,0,0,0-.71-.21v-.07a3.73,3.73,0,0,0,.57-.35,1.41,1.41,0,0,0,.43-.5,1.08,1.08,0,0,0,.28-.57,3.61,3.61,0,0,0,.07-.71,2.9,2.9,0,0,0-.14-.92,2.7,2.7,0,0,0-.5-.71,4.39,4.39,0,0,0-.78-.5,3.87,3.87,0,0,0-1.07-.14,2.09,2.09,0,0,0-.78.14,2.53,2.53,0,0,0-.71.21m9.38,4.26a.87.87,0,0,0-.71.35.94.94,0,0,0-.36.78,1.08,1.08,0,0,0,.36.78,1,1,0,0,0,.71.28,1.06,1.06,0,0,0,.78-.28,1.08,1.08,0,0,0,.36-.78,1.22,1.22,0,0,0-1.14-1.14m8.81-1.28a2.09,2.09,0,0,0-.78-.14,3.62,3.62,0,0,0-1.28.21,2.76,2.76,0,0,0-1,.64,3,3,0,0,0-.85,2.2,5,5,0,0,0,.14,1.21,3.73,3.73,0,0,0,.57.92,2.16,2.16,0,0,0,.92.64,4.15,4.15,0,0,0,1.14.14,2.91,2.91,0,0,0,.92-.14,2.25,2.25,0,0,0,.85-.64v.71h1.07v-8.94h-1.07v3.48a1.56,1.56,0,0,0-.64-.28m-.78.85a3.62,3.62,0,0,1,.71.07,5,5,0,0,1,.71.35v2.84a1.37,1.37,0,0,1-.71.57,2,2,0,0,1-.92.21,1.92,1.92,0,0,1-1.35-.57,1.62,1.62,0,0,1-.36-.64,2.08,2.08,0,0,1-.14-.78,2.29,2.29,0,0,1,.14-.85,1.89,1.89,0,0,1,.43-.64,2.18,2.18,0,0,1,1.49-.57m-49,3.62a.77.77,0,0,0-.57.21.69.69,0,0,0-.14.5.76.76,0,0,0,.14.43.48.48,0,0,0,.36.14.23.23,0,0,0,.21-.14.89.89,0,0,1,.07.64,1,1,0,0,1-.85.85l.28.5a1.08,1.08,0,0,0,.57-.28,1.9,1.9,0,0,0,.5-.35l.28-.57a3.29,3.29,0,0,0,.07-.64,1.43,1.43,0,0,0-.28-.92.7.7,0,0,0-.64-.35m-4.12-4.47a4.15,4.15,0,0,0-1.14.14,1.77,1.77,0,0,0-.78.43,2,2,0,0,0-.5.57,2.08,2.08,0,0,0-.14.78,1.41,1.41,0,0,0,.14.64,3.89,3.89,0,0,0,.21.5,1.38,1.38,0,0,0,.92.5l-1.7,2.2h1.28l1.42-1.92h1.07v1.92h1.07v-5.75H86.09m.78,1v1.85H85.73a1.49,1.49,0,0,1-.78-.21,1,1,0,0,1,0-1.42,1.94,1.94,0,0,1,1-.21h.92m20.25.85v.92h5.33v-.92h-5.33m-5-2.63,1.28-1v7.52h1.07v-9h-.71l-2.2,1.7.57.78m-2.2-1.14a2.82,2.82,0,0,0-.43-.71,2,2,0,0,0-.78-.5,3.87,3.87,0,0,0-1.07-.14,2.91,2.91,0,0,0-.92.14,3.93,3.93,0,0,0-.78.35,4.65,4.65,0,0,0-.57.71,2.26,2.26,0,0,0-.28.85l.85.35a2.53,2.53,0,0,1,.21-.64,1.81,1.81,0,0,1,.43-.43,1.65,1.65,0,0,1,.43-.28,2.34,2.34,0,0,1,.57-.07,2.64,2.64,0,0,1,.64.07,2.82,2.82,0,0,1,.43.35.69.69,0,0,1,.28.43,2.33,2.33,0,0,1,.07.57,3.61,3.61,0,0,1-.07.71l-.28.71a8.87,8.87,0,0,1-1.07,1.63,36.29,36.29,0,0,1-2.56,2.7v.85h5.47v-1H96.39l2.13-2.13.64-.92a5.72,5.72,0,0,0,.5-.92,5.33,5.33,0,0,0,.36-.92,3.37,3.37,0,0,0,.14-.92A1.89,1.89,0,0,0,99.94,111.56Z"/></g><g id="Layer0_0_MEMBER_0_FILL" data-name="Layer0 0 MEMBER 0 FILL"><path class="cls-1" d="M0,99.5H166.23V0H0Z"/></g><g id="Layer0_0_MEMBER_1_FILL" data-name="Layer0 0 MEMBER 1 FILL"><path d="M160.36,93.57V5.93H6V93.57Z"/></g><g id="Layer0_0_MEMBER_2_FILL" data-name="Layer0 0 MEMBER 2 FILL"><path class="cls-2" d="M158.84,92.14V7.45H7.52V92.14Z"/></g><g id="Layer0_0_MEMBER_3_FILL" data-name="Layer0 0 MEMBER 3 FILL"><path d="M157.41,90.53V8.87H9.22V90.53Z"/></g><g id="Layer0_0_MEMBER_4_FILL" data-name="Layer0 0 MEMBER 4 FILL"><path class="cls-2" d="M21.18,76.61v4.11h.62V76.61h2v-.54H19.22v.54Z"/></g><g id="Layer0_0_MEMBER_5_MEMBER_0_FILL" data-name="Layer0 0 MEMBER 5 MEMBER 0 FILL"><path class="cls-2" d="M26.63,79.29h-.71Q26,80.8,28.14,80.8t2.14-1.43a1,1,0,0,0-1.07-1.16l-1.7-.27q-.8-.09-.8-.62,0-.89,1.25-.89,1.43,0,1.52.89h.71Q30.11,76,28.14,76t-2.05,1.34q0,1.07,1.79,1.34t1.79.71q0,.89-1.52.89T26.63,79.29Z"/></g><g id="Layer0_0_MEMBER_5_MEMBER_1_FILL" data-name="Layer0 0 MEMBER 5 MEMBER 1 FILL"><path class="cls-2" d="M33.05,78.84q0,2,2.14,2t2.23-2V76.07h-.71v2.77q0,1.43-1.52,1.43a1.26,1.26,0,0,1-1.43-1.43V76.07h-.71Z"/></g><g id="Layer0_0_MEMBER_5_MEMBER_2_FILL" data-name="Layer0 0 MEMBER 5 MEMBER 2 FILL"><path class="cls-2" d="M46.62,76.07H45.55L43.5,80.18l-2.05-4.11h-1v4.64h.62V76.52l2.14,4.19h.71L46,76.52v4.19h.62Z"/></g><g id="Layer0_0_MEMBER_5_MEMBER_3_FILL" data-name="Layer0 0 MEMBER 5 MEMBER 3 FILL"><path class="cls-1" d="M55.8,81V76.21H50.89V81Z"/></g><g id="Layer0_0_MEMBER_5_MEMBER_4_FILL" data-name="Layer0 0 MEMBER 5 MEMBER 4 FILL"><path class="cls-2" d="M61.09,76.79a2,2,0,0,1,1.07-.27,1.6,1.6,0,0,1,1,.27,1,1,0,0,1,.36.62h.71a1,1,0,0,0-.27-.71,1.06,1.06,0,0,0-.71-.54L62.07,76,61,76.16l-.71.45a1.53,1.53,0,0,0-.27.71l.27.54a1.31,1.31,0,0,0,.62.45l2.14.45.45.36a.45.45,0,0,1,0,.71.41.41,0,0,1-.45.27l-.8.18-.89-.18a1,1,0,0,1-.54-.36l-.27-.54h-.71a.94.94,0,0,0,.36.8,2.22,2.22,0,0,0,.8.62l1.34.18,1.07-.18.71-.54a1,1,0,0,0,.27-.71.87.87,0,0,0-.18-.62,1.56,1.56,0,0,0-.8-.45L61,77.68l-.18-.45A.52.52,0,0,1,61.09,76.79Z"/></g><g id="Layer0_0_MEMBER_5_MEMBER_5_FILL" data-name="Layer0 0 MEMBER 5 MEMBER 5 FILL"><path class="cls-2" d="M69.12,80.71h.8V76.61H71.8v-.54H67.25v.54h1.87Z"/></g><g id="Layer0_0_MEMBER_5_MEMBER_6_FILL" data-name="Layer0 0 MEMBER 5 MEMBER 6 FILL"><path class="cls-2" d="M72.51,80.09v.62h.8v-.62Z"/></g><g id="Layer0_0_MEMBER_5_MEMBER_7_FILL" data-name="Layer0 0 MEMBER 5 MEMBER 7 FILL"><path class="cls-2" d="M80.28,76.79l-.45-.45-.71-.18-.89-.09H76.08v4.64h.71V78.84h1.52a2.87,2.87,0,0,0,1.7-.45,1.36,1.36,0,0,0,.45-1l-.18-.62M79,76.7a.41.41,0,0,1,.45.27l.18.45q0,.54-.27.62a1.78,1.78,0,0,1-1.07.27H76.8v-1.7h1.52Z"/></g><g id="Layer0_0_MEMBER_5_MEMBER_8_FILL" data-name="Layer0 0 MEMBER 5 MEMBER 8 FILL"><path class="cls-2" d="M87.33,76.07H83.23v4.55h4.29v-.54H83.94V78.48h3.21v-.54H83.94V76.61h3.39Z"/></g><g id="Layer0_0_MEMBER_5_MEMBER_9_FILL" data-name="Layer0 0 MEMBER 5 MEMBER 9 FILL"><path class="cls-2" d="M92.15,80.63H93v-4h1.87v-.54H90.28v.54h1.87Z"/></g><g id="Layer0_0_MEMBER_5_MEMBER_10_FILL" data-name="Layer0 0 MEMBER 5 MEMBER 10 FILL"><path class="cls-2" d="M101.71,76.61v-.54H97.6v4.64h4.29v-.54H98.31V78.57h3.21V78H98.31V76.61Z"/></g><g id="Layer0_0_MEMBER_5_MEMBER_11_FILL" data-name="Layer0 0 MEMBER 5 MEMBER 11 FILL"><path class="cls-2" d="M105.1,80.63h.71V78.57h1.34l.36.18.36.27,1.34,1.61h1l-1-1.25-.71-.62-.45-.18a2.39,2.39,0,0,0,1.25-.45,1.11,1.11,0,0,0,.36-.8,1,1,0,0,0-.18-.71,1.76,1.76,0,0,0-.62-.45l-3.75-.09v4.55m2.59-4.11a1.23,1.23,0,0,1,.89.27.48.48,0,0,1,.36.54l-.18.36a.41.41,0,0,1-.45.27l-.8.09h-1.7V76.52Z"/></g><g id="Layer0_0_MEMBER_5_MEMBER_12_FILL" data-name="Layer0 0 MEMBER 5 MEMBER 12 FILL"><path class="cls-2" d="M113.67,76.7a1.63,1.63,0,0,1,1-.18l1,.18a.9.9,0,0,1,.45.71l.71-.09a1,1,0,0,0-.27-.71,1.56,1.56,0,0,0-.8-.45,2.15,2.15,0,0,0-1.07-.18l-1.07.09a1.84,1.84,0,0,0-.71.54.86.86,0,0,0-.27.62l.18.54.62.45,2.14.54.54.27.18.36-.18.36a1,1,0,0,1-.54.36l-.71.09-.89-.18-.62-.36-.27-.54-.71.09.36.8a1.1,1.1,0,0,0,.8.54l1.34.18,1.07-.18a1.1,1.1,0,0,0,.8-.54.86.86,0,0,0,.27-.62,1,1,0,0,0-.27-.71,1.58,1.58,0,0,0-.71-.45l-2.41-.62a.41.41,0,0,1-.27-.45A.42.42,0,0,1,113.67,76.7Z"/></g><g id="Layer0_0_MEMBER_5_MEMBER_13_FILL" data-name="Layer0 0 MEMBER 5 MEMBER 13 FILL"><path class="cls-2" d="M122.06,76.07h-2.23v4.64h2.23l.89-.09.71-.27L124,80a1.1,1.1,0,0,0,.18-.62,1,1,0,0,0-.27-.71,1.56,1.56,0,0,0-.8-.45l.62-.36.18-.62-.18-.54a1.49,1.49,0,0,0-.62-.45l-1.07-.18m-1.43.54,2.05.09A2.66,2.66,0,0,1,123,77l.18.36-.18.45-.45.18-.71.09h-1.25V76.61m2.14,2.05a.41.41,0,0,1,.45.27q.18.09.18.45l-.09.36L123,80l-1,.18h-1.43V78.57H122Z"/></g><g id="Layer0_0_MEMBER_5_MEMBER_14_FILL" data-name="Layer0 0 MEMBER 5 MEMBER 14 FILL"><path class="cls-2" d="M127.51,76.07h-.71v2.68a2.42,2.42,0,0,0,.18,1.16,1.45,1.45,0,0,0,.71.62,3.48,3.48,0,0,0,2.68,0,1.39,1.39,0,0,0,.71-.71,2.15,2.15,0,0,0,.18-1.07V76.07h-.71v2.68a1.59,1.59,0,0,1-.36,1.16,2.16,2.16,0,0,1-1.25.27l-.8-.09a.81.81,0,0,1-.45-.45l-.18-.89Z"/></g><g id="Layer0_0_MEMBER_5_MEMBER_15_FILL" data-name="Layer0 0 MEMBER 5 MEMBER 15 FILL"><path class="cls-2" d="M138.4,76.7a1.31,1.31,0,0,0-.62-.45l-1.16-.18H134v4.64h.8V78.66h1.25l.36.09.45.36,1.25,1.61h1l-1-1.25-.62-.62-.54-.27a2.2,2.2,0,0,0,1.25-.36,1.29,1.29,0,0,0,.45-.89.86.86,0,0,0-.27-.62m-1.79-.09a3.13,3.13,0,0,1,1,.18l.27.54-.18.45-.45.27-.8.09h-1.61V76.61Z"/></g><g id="Layer0_0_MEMBER_5_MEMBER_16_FILL" data-name="Layer0 0 MEMBER 5 MEMBER 16 FILL"><path class="cls-2" d="M145.54,78.84v.8l-.71.36-1,.18L142.77,80a2.22,2.22,0,0,1-.8-.62,1.77,1.77,0,0,1-.27-1.07l.18-.89.36-.45.62-.36,1-.09.71.09.62.27.27.62.71-.18-.45-.71a1.42,1.42,0,0,0-.8-.45,2.77,2.77,0,0,0-1.16-.18,4.29,4.29,0,0,0-1.52.27,2,2,0,0,0-1,.89,2,2,0,0,0-.36,1.25,1.8,1.8,0,0,0,.36,1.16,3.56,3.56,0,0,0,1.07.89,4.29,4.29,0,0,0,1.52.27l1.25-.18a3,3,0,0,0,1.16-.54v-1.7h-2.41v.54Z"/></g><g id="Layer0_0_MEMBER_5_MEMBER_17_FILL" data-name="Layer0 0 MEMBER 5 MEMBER 17 FILL"><path class="cls-2" d="M88.58,32.7h2.5V31.54H81.71V32.7H84.3l-8.84,23-.36.18H72.25v.89H81.8v-.89H77.69a.73.73,0,0,1-.27-.45L84.3,36.18,91.62,55q.09.71-.27.89H87.69v.89H99.92v-.89H97.51q-.45-.18-.45-.45Z"/></g><g id="Layer0_0_MEMBER_5_MEMBER_18_FILL" data-name="Layer0 0 MEMBER 5 MEMBER 18 FILL"><path class="cls-2" d="M36.71,32.61H39V31.54H29.66v1.07h2.77l-8.84,23-.45.18H19.22v4.55h1.07a3.74,3.74,0,0,1,.27-1.78,2.78,2.78,0,0,1,2.86-1.78H45.2a2.78,2.78,0,0,1,2.86,1.78,3.74,3.74,0,0,1,.27,1.78h1.16V55.82H45.73a1.46,1.46,0,0,1-.54-.45L36.71,32.61m-10.8,23.2a.73.73,0,0,1-.27-.45l6.87-19.28,7.23,18.83a.7.7,0,0,1-.27.89Z"/></g><g id="Layer0_0_MEMBER_5_MEMBER_19_FILL" data-name="Layer0 0 MEMBER 5 MEMBER 19 FILL"><path class="cls-2" d="M146.7,36.27V31.63H121.35v4.64h1.07a3.74,3.74,0,0,1,.27-1.78,2.71,2.71,0,0,1,2.95-1.78h5.89v23h-2.86v.89h10.44v-.89h-2.68v-23h6a2.71,2.71,0,0,1,2.95,1.78,3.74,3.74,0,0,1,.27,1.78Z"/></g><g id="Layer0_0_MEMBER_5_MEMBER_20_FILL" data-name="Layer0 0 MEMBER 5 MEMBER 20 FILL"><path class="cls-2" d="M60.64,63.22V24.4H60V63.22Z"/></g><g id="Layer0_0_MEMBER_5_MEMBER_21_FILL" data-name="Layer0 0 MEMBER 5 MEMBER 21 FILL"><path class="cls-2" d="M110.19,63.22V24.4h-.62V63.22Z"/></g></g></g></svg>