<svg xmlns="http://www.w3.org/2000/svg" viewBox="0 0 110.42 216.6"><defs><style>.cls-1{fill:#fc4600;}.cls-2{fill:#f74902;}.cls-3{fill:#fff;}</style></defs><title>sale_logo</title><g id="Layer_2" data-name="Layer 2"><g id="Layer_1-2" data-name="Layer 1"><g id="Layer0_0_MEMBER_0_FILL" data-name="Layer0 0 MEMBER 0 FILL"><path class="cls-1" d="M104.41,76h-2.72l-11,19.84h2.75L104.41,76m-3.69,9.73a6.17,6.17,0,0,0-1.49,4.24,5.8,5.8,0,0,0,1.6,4.24,5.26,5.26,0,0,0,3.94,1.6,5.35,5.35,0,0,0,3.92-1.58,6.18,6.18,0,0,0,1.73-4.59,5.81,5.81,0,0,0-1.4-4,5.19,5.19,0,0,0-4.07-1.68h0a5.32,5.32,0,0,0-4.19,1.8m4.11,1h0q1.66,0,1.66,3.08a5.22,5.22,0,0,1-.41,2.32,1.32,1.32,0,0,1-1.21.79,1.43,1.43,0,0,1-1.32-.85,4.77,4.77,0,0,1-.43-2.23,5.1,5.1,0,0,1,.4-2.22,1.38,1.38,0,0,1,1.3-.9M90.48,75.9h0a5.3,5.3,0,0,0-4.19,1.81A6.25,6.25,0,0,0,84.78,82a5.79,5.79,0,0,0,1.59,4.21,5.28,5.28,0,0,0,3.94,1.59,5.39,5.39,0,0,0,3.93-1.58A6.2,6.2,0,0,0,96,81.62a5.82,5.82,0,0,0-1.41-4,5.17,5.17,0,0,0-4.07-1.68m-.12,2.85h0a1.36,1.36,0,0,1,1.28.89,5.36,5.36,0,0,1,.37,2.23q0,3.07-1.63,3.07a1.41,1.41,0,0,1-1.31-.85,4.69,4.69,0,0,1-.43-2.22,5.23,5.23,0,0,1,.39-2.22A1.38,1.38,0,0,1,90.37,78.75Z"/></g><g id="Layer0_0_MEMBER_1_FILL" data-name="Layer0 0 MEMBER 1 FILL"><path class="cls-1" d="M34.46,69.36a16.79,16.79,0,0,0-2.65.15l.88-6.41H48.82v-8H25.89L23.17,76.93a38.09,38.09,0,0,1,5.61-.38q11.72,0,11.72,6.91a5.43,5.43,0,0,1-2.65,4.8,10,10,0,0,1-5.65,1.54,22.6,22.6,0,0,1-5.42-.69,19,19,0,0,1-4-1.38L21.05,95a20.18,20.18,0,0,0,4.76,1.65,31.08,31.08,0,0,0,6.8.73q8.1,0,13.14-4.38a13.07,13.07,0,0,0,4.72-10.22,13.74,13.74,0,0,0-1.34-6.22,10.86,10.86,0,0,0-3.73-4.19,14.89,14.89,0,0,0-5.07-2.3A22.67,22.67,0,0,0,34.46,69.36Z"/></g><g id="Layer0_0_MEMBER_2_FILL" data-name="Layer0 0 MEMBER 2 FILL"><path class="cls-1" d="M79.49,91.38q3.92-5.7,3.92-15.66,0-9.31-3.56-14.92a13.22,13.22,0,0,0-11.92-6.38,13.59,13.59,0,0,0-12,6.27q-3.9,5.78-3.9,15.29T55.83,91.1a13.23,13.23,0,0,0,11.78,6.3,13.55,13.55,0,0,0,11.88-6M67.81,61.77q2.92,0,4.4,3.58t1.48,10.49q0,7-1.49,10.66T67.86,90Q65,90,63.43,86.58T61.85,76q0-7,1.61-10.73Q65,61.77,67.81,61.77Z"/></g><g id="Layer0_0_MEMBER_0_FILL-2" data-name="Layer0 0 MEMBER 0 FILL"><path class="cls-1" d="M1.07,15.24a14.19,14.19,0,0,0,2,7.43,12.26,12.26,0,0,0,6.12,5.18,33.51,33.51,0,0,0,3.77,1.44l4.41,1.64a14.05,14.05,0,0,1,5.43,3,6,6,0,0,1,1.76,4.41,7.18,7.18,0,0,1-2.08,5.3,8,8,0,0,1-5.92,2.08,9.78,9.78,0,0,1-5.1-1.31A15.82,15.82,0,0,1,7.51,41a25.56,25.56,0,0,1-3-4.53,40.35,40.35,0,0,1-2.08-4.86H0L.32,47.7H2.77l2-2.21a26.85,26.85,0,0,0,5.47,2.38A22.24,22.24,0,0,0,17.14,49a21,21,0,0,0,7-1.09,16.15,16.15,0,0,0,5.28-3.07,13.82,13.82,0,0,0,3.34-4.48A13.63,13.63,0,0,0,34,34.71,13.18,13.18,0,0,0,31.81,27a14.46,14.46,0,0,0-6.29-4.86q-1.59-.67-3.91-1.51L17.32,19A15,15,0,0,1,12,16a5.91,5.91,0,0,1-1.71-4.36,6.54,6.54,0,0,1,2-4.78,6.8,6.8,0,0,1,5-1.88A8.82,8.82,0,0,1,21.6,6a13.79,13.79,0,0,1,3.22,2.9,18.58,18.58,0,0,1,2.45,4.29q1.39,3.27,2,5h2.45L31.49,3H29L27.28,4.91a25.71,25.71,0,0,0-4.61-2.08,19.86,19.86,0,0,0-6.37-1A17.44,17.44,0,0,0,10,3,14.44,14.44,0,0,0,5.1,5.85a13.51,13.51,0,0,0-3,4.36,12.11,12.11,0,0,0-1,5m88,1.78a13.35,13.35,0,0,0-4.86,3.57,16.63,16.63,0,0,0-3.07,5.23A18.27,18.27,0,0,0,80,32a20.37,20.37,0,0,0,1,6.62A13.71,13.71,0,0,0,84,43.86a14.6,14.6,0,0,0,5.1,3.59,18.29,18.29,0,0,0,7.31,1.31,14.41,14.41,0,0,0,4.48-.62,16.44,16.44,0,0,0,3.89-1.78A13,13,0,0,0,108,43.61a16.25,16.25,0,0,0,2.4-3.34l-2.16-1.76a14.35,14.35,0,0,1-3.72,4.09,7.66,7.66,0,0,1-4.78,1.64q-4.91,0-7.18-3.39t-2.25-9.76h19.32V29a17.5,17.5,0,0,0-.74-5.1,11.61,11.61,0,0,0-2.33-4.24,11.75,11.75,0,0,0-4.29-2.95,17.68,17.68,0,0,0-6.56-1.07A15.46,15.46,0,0,0,89.06,17m2.7,3.57a4,4,0,0,1,3.54-2.45,3,3,0,0,1,2.13.77,4.36,4.36,0,0,1,1.31,2.25,9.15,9.15,0,0,1,.57,3.22q.2,2,.2,3.91l-9.19.12q.17-5.48,1.44-7.83m-30.87.07a8.3,8.3,0,0,0-2.75-3.22,12.46,12.46,0,0,0-4.24-1.51,31.07,31.07,0,0,0-5-.37,18,18,0,0,0-4.36.57,15.13,15.13,0,0,0-4.14,1.44,10.29,10.29,0,0,0-3.15,2.28A4.76,4.76,0,0,0,36,23.07a4.43,4.43,0,0,0,1.26,3.27,4.67,4.67,0,0,0,3.57,1.31,6.12,6.12,0,0,0,2.53-.37,5.06,5.06,0,0,0,1.51-.94A2.89,2.89,0,0,0,45.61,25a7,7,0,0,0,.25-1.31,6.67,6.67,0,0,0-.45-2.45l-.45-2a8.07,8.07,0,0,1,1.34-.74,4.44,4.44,0,0,1,2.13-.45,4,4,0,0,1,2.28.69,4.76,4.76,0,0,1,1.24,1.68,9.13,9.13,0,0,1,.45,2.21l.12,5.1a30.84,30.84,0,0,1-5.28,2q-3.42,1.07-6.17,2.21a25.54,25.54,0,0,0-2.48,1.19,7.21,7.21,0,0,0-2,1.71,7.31,7.31,0,0,0-1.44,2.53,9.35,9.35,0,0,0-.52,3.47A7.38,7.38,0,0,0,37,46.56a8.1,8.1,0,0,0,5.67,2.13,13.93,13.93,0,0,0,3.47-.3,11.75,11.75,0,0,0,2.58-1.07,9,9,0,0,0,2-1.26q.32-.25,1.88-1.83h.2a5.8,5.8,0,0,0,2.2,3.27,9.15,9.15,0,0,0,5.15,1.26H82V46.43a5.73,5.73,0,0,1-1.51-.32l-1.19-.5a2.35,2.35,0,0,1-1.19-1.14,3.55,3.55,0,0,1-.4-1.88L77.79.5,77.34,0,62.92.82V3.15a6.85,6.85,0,0,1,2,.45,7.43,7.43,0,0,1,1.76.74A3.85,3.85,0,0,1,67.9,5.92a6.64,6.64,0,0,1,.42,2.21l0,34.91A3.84,3.84,0,0,1,68,44.85,1.88,1.88,0,0,1,66.69,46a7.46,7.46,0,0,1-1.26.32h-.62A4.87,4.87,0,0,1,63.3,46a2.44,2.44,0,0,1-1.19-1.19,5.33,5.33,0,0,1-.4-2.28q0-4.71.15-8L62,26.09a11.88,11.88,0,0,0-1.09-5.43M49.32,32q1.64-.77,3.2-1.34L52.4,41.33a6.85,6.85,0,0,1-1.76,1.76,4.4,4.4,0,0,1-2.65.69,3.27,3.27,0,0,1-2.5-1.07,5.42,5.42,0,0,1-1-3.59,7.62,7.62,0,0,1,.62-3.22,7,7,0,0,1,1.64-2.25Q47.49,33.08,49.32,32Z"/></g><g id="Layer0_0_MEMBER_1_FILL-2" data-name="Layer0 0 MEMBER 1 FILL"><path class="cls-1" d="M107,16.14l-.06.06-.31.82-.19-.5-.06-.31-.06-.06-.13-.06-.13.06-.06.13v.19l.57.63-.82-.19-.19.06-.06.13.06.19.19.06.82-.19-.57.63v.13l.06.19h.25l.06-.06.25-.82L107,18l.06.06h.25l.06-.19-.06-.13-.31-.31-.19-.31.82.19.13-.06.06-.19-.06-.13-.13-.06-.82.19.38-.5a.52.52,0,0,0,.19-.31l-.06-.13-.13-.06Z"/></g><g id="Layer1_0_FILL" data-name="Layer1 0 FILL"><path d="M64.71,211l-.28.38a4.21,4.21,0,0,0-.38.94,7.76,7.76,0,0,0-.09,1.27q0,.89.09,1.27a4.21,4.21,0,0,0,.38.94l.28.38a1.26,1.26,0,0,0,.33.24,1.84,1.84,0,0,0,.38.14,2.38,2.38,0,0,0,.94,0,1.84,1.84,0,0,0,.38-.14,1.26,1.26,0,0,0,.33-.24l.28-.38a4.25,4.25,0,0,0,.33-.94,5.24,5.24,0,0,0,.14-1.27,4,4,0,0,0-.52-2.21,2.47,2.47,0,0,0-.24-.38,1.26,1.26,0,0,0-.33-.24,1.68,1.68,0,0,0-.42-.14,1.75,1.75,0,0,0-.42,0,2.4,2.4,0,0,0-.47,0,1.84,1.84,0,0,0-.38.14,1.26,1.26,0,0,0-.33.24m0,2.59a4.85,4.85,0,0,1,.09-1,1.64,1.64,0,0,1,.24-.75,1,1,0,0,1,.38-.47.85.85,0,0,1,.52-.14,1,1,0,0,1,.52.14,1.39,1.39,0,0,1,.38.47,3.05,3.05,0,0,1,.24.75,11.39,11.39,0,0,1,0,2.07,3.05,3.05,0,0,1-.24.75,1.13,1.13,0,0,1-.33.47,1.08,1.08,0,0,1-.56.14,1,1,0,0,1-.52-.14,1,1,0,0,1-.38-.47,1.64,1.64,0,0,1-.24-.75,4.85,4.85,0,0,1-.09-1M51.44,214a2.47,2.47,0,0,0-.38-.61,2,2,0,0,0-.52-.38,1.66,1.66,0,0,0-.66-.14,1.47,1.47,0,0,0-1.41.8,4.12,4.12,0,0,1,.28-.94,4.62,4.62,0,0,1,.56-.8,4,4,0,0,1,.71-.56,2.54,2.54,0,0,1,.8-.33l-.28-.52-.52.19-.47.28a5.48,5.48,0,0,0-.94.8q-.19.24-.38.52a3,3,0,0,0-.28.66,4.65,4.65,0,0,0-.24.71,6.05,6.05,0,0,0,0,.75,2.39,2.39,0,0,0,.14.85,1.77,1.77,0,0,0,.42.71,1.6,1.6,0,0,0,.66.47,1.87,1.87,0,0,0,.85.19,1.66,1.66,0,0,0,.66-.14A2,2,0,0,0,51,216a1.43,1.43,0,0,0,.42-.61,1.89,1.89,0,0,0,.14-.75,1.77,1.77,0,0,0-.14-.71m-.66.28a2,2,0,0,1,0,.47,2.39,2.39,0,0,1,0,.47,2.47,2.47,0,0,1-.24.38.83.83,0,0,1-.38.24.93.93,0,0,1-.42.09,1.52,1.52,0,0,1-.56-.09.75.75,0,0,1-.42-.33,1.18,1.18,0,0,1-.28-.47,1.92,1.92,0,0,1-.09-.61,3.07,3.07,0,0,1,.19-.33.62.62,0,0,1,.28-.28.7.7,0,0,1,.33-.19,1.26,1.26,0,0,1,.47-.09,1.38,1.38,0,0,1,.52.09,2.47,2.47,0,0,1,.38.24,1.84,1.84,0,0,1,.24.42M40,210.54h-.47L38,211.67l.38.52.85-.66v5H40v-6m4.61.89a1.87,1.87,0,0,0-.28-.47,1.32,1.32,0,0,0-.52-.33,2.56,2.56,0,0,0-.71-.09,1.93,1.93,0,0,0-.61.09,2.6,2.6,0,0,0-.52.24,3.08,3.08,0,0,0-.38.47,1.5,1.5,0,0,0-.19.56l.56.24a1.68,1.68,0,0,1,.14-.42,1.2,1.2,0,0,1,.28-.28,1.1,1.1,0,0,1,.28-.19,1.55,1.55,0,0,1,.38,0,1.75,1.75,0,0,1,.42,0,1.87,1.87,0,0,1,.28.24.46.46,0,0,1,.19.28,1.54,1.54,0,0,1,0,.38,2.39,2.39,0,0,1,0,.47l-.19.47a5.87,5.87,0,0,1-.71,1.08,24,24,0,0,1-1.69,1.79v.56h3.62v-.66H42.22l1.41-1.41.42-.61a3.79,3.79,0,0,0,.33-.61,3.53,3.53,0,0,0,.24-.61,2.23,2.23,0,0,0,.09-.61,1.25,1.25,0,0,0-.14-.56m-9.37-.94a2.07,2.07,0,0,0-1.27.42,1.54,1.54,0,0,0-.47,1.13,2.39,2.39,0,0,0,0,.47q.09.24.19.42a1.64,1.64,0,0,0,.33.33.7.7,0,0,0,.33.19v0a1,1,0,0,0-.42.19,1.29,1.29,0,0,0-.38.33,1.65,1.65,0,0,0-.24.47,2.39,2.39,0,0,0,0,.47,1.45,1.45,0,0,0,.14.66,1.15,1.15,0,0,0,.42.52,1.66,1.66,0,0,0,.61.33,2.26,2.26,0,0,0,.8.14,2.13,2.13,0,0,0,.75-.14,1.66,1.66,0,0,0,.61-.33,1.15,1.15,0,0,0,.42-.52,1.57,1.57,0,0,0,.14-.71,2.64,2.64,0,0,0,0-.52,1.25,1.25,0,0,0-.28-.42,1.64,1.64,0,0,0-.33-.33,1.48,1.48,0,0,0-.47-.19,2.47,2.47,0,0,0,.38-.24,1.64,1.64,0,0,0,.33-.33,1,1,0,0,0,.19-.42,1.75,1.75,0,0,0,0-.42,1.92,1.92,0,0,0-.09-.61,1.62,1.62,0,0,0-.42-.52,1.94,1.94,0,0,0-1.27-.42m-.94,1.27a.7.7,0,0,1,.19-.33l.33-.19a2.18,2.18,0,0,1,.42,0,1.75,1.75,0,0,1,.42,0,1.06,1.06,0,0,1,.38.19.7.7,0,0,1,.19.33.83.83,0,0,1,.09.38,1.54,1.54,0,0,1,0,.38,1.26,1.26,0,0,1-.24.33,1.87,1.87,0,0,1-.28.24,1.55,1.55,0,0,1-.38,0h-.24a1,1,0,0,1-.33,0,1.23,1.23,0,0,1-.56-.56,1.54,1.54,0,0,1,0-.38.83.83,0,0,1,.09-.38m-.19,2.68a1.26,1.26,0,0,1,.24-.33,2.47,2.47,0,0,1,.38-.24,1.26,1.26,0,0,1,.47-.09h.19a.93.93,0,0,1,.42.09,2.09,2.09,0,0,1,.38.19,1.05,1.05,0,0,1,.33.8.93.93,0,0,1-.09.42,1.26,1.26,0,0,1-.24.33,1.84,1.84,0,0,1-.42.24,2.65,2.65,0,0,1-.52,0,2.4,2.4,0,0,1-.47,0,1.84,1.84,0,0,1-.42-.24,1.26,1.26,0,0,1-.24-.33,1,1,0,0,1,0-.85m-7.67,0a2.39,2.39,0,0,0,0,.47,1.45,1.45,0,0,0,.14.66,1.15,1.15,0,0,0,.42.52,1.66,1.66,0,0,0,.61.33,2.26,2.26,0,0,0,.8.14,2.13,2.13,0,0,0,.75-.14,1.66,1.66,0,0,0,.61-.33,1.15,1.15,0,0,0,.42-.52,1.57,1.57,0,0,0,.14-.71,2.64,2.64,0,0,0,0-.52,1.25,1.25,0,0,0-.28-.42,1.64,1.64,0,0,0-.33-.33,1.48,1.48,0,0,0-.47-.19,2.47,2.47,0,0,0,.38-.24,1.64,1.64,0,0,0,.33-.33,1,1,0,0,0,.19-.42,1.75,1.75,0,0,0,0-.42,1.92,1.92,0,0,0-.09-.61,1.62,1.62,0,0,0-.42-.52,1.94,1.94,0,0,0-1.27-.42,2.07,2.07,0,0,0-1.27.42,1.54,1.54,0,0,0-.47,1.13,2.39,2.39,0,0,0,0,.47q.09.24.19.42a1.64,1.64,0,0,0,.33.33.7.7,0,0,0,.33.19v0a1,1,0,0,0-.42.19,1.29,1.29,0,0,0-.38.33,1.65,1.65,0,0,0-.24.47m.94-2.73a.7.7,0,0,1,.19-.33l.33-.19a2.18,2.18,0,0,1,.42,0,1.75,1.75,0,0,1,.42,0,1.06,1.06,0,0,1,.38.19.7.7,0,0,1,.19.33.83.83,0,0,1,.09.38,1.54,1.54,0,0,1,0,.38,1.26,1.26,0,0,1-.24.33,1.87,1.87,0,0,1-.28.24,1.55,1.55,0,0,1-.38,0H28.2a1,1,0,0,1-.33,0,1.23,1.23,0,0,1-.56-.56,1.54,1.54,0,0,1,0-.38.83.83,0,0,1,.09-.38m-.19,2.68a1.26,1.26,0,0,1,.24-.33,2.47,2.47,0,0,1,.38-.24,1.26,1.26,0,0,1,.47-.09h.19a.93.93,0,0,1,.42.09,2.09,2.09,0,0,1,.38.19,1.05,1.05,0,0,1,.33.8.93.93,0,0,1-.09.42,1.26,1.26,0,0,1-.24.33,1.84,1.84,0,0,1-.42.24,2.65,2.65,0,0,1-.52,0,2.4,2.4,0,0,1-.47,0,1.84,1.84,0,0,1-.42-.24,1.26,1.26,0,0,1-.24-.33,1,1,0,0,1,0-.85m51.39-3.86H77.8l-2.45,3.95v.52h2.73v1.46h.66v-1.46h.85v-.71h-.85V212.7h-.66v1.65H76.24l2.31-3.76m5,.33a1.94,1.94,0,0,0-1.27-.42,2.07,2.07,0,0,0-1.27.42,1.54,1.54,0,0,0-.47,1.13,2.39,2.39,0,0,0,0,.47q.09.24.19.42a1.64,1.64,0,0,0,.33.33.7.7,0,0,0,.33.19v0a1,1,0,0,0-.42.19,1.29,1.29,0,0,0-.38.33,1.65,1.65,0,0,0-.24.47,2.39,2.39,0,0,0,0,.47,1.45,1.45,0,0,0,.14.66,1.15,1.15,0,0,0,.42.52,1.66,1.66,0,0,0,.61.33,2.26,2.26,0,0,0,.8.14,2.13,2.13,0,0,0,.75-.14,1.66,1.66,0,0,0,.61-.33,1.15,1.15,0,0,0,.42-.52,1.57,1.57,0,0,0,.14-.71,2.64,2.64,0,0,0,0-.52A1.25,1.25,0,0,0,84,214a1.64,1.64,0,0,0-.33-.33,1.48,1.48,0,0,0-.47-.19,2.47,2.47,0,0,0,.38-.24,1.64,1.64,0,0,0,.33-.33,1,1,0,0,0,.19-.42,1.75,1.75,0,0,0,0-.42,1.92,1.92,0,0,0-.09-.61,1.62,1.62,0,0,0-.42-.52m-1.27.28a1.75,1.75,0,0,1,.42,0,1.06,1.06,0,0,1,.38.19.7.7,0,0,1,.19.33.83.83,0,0,1,.09.38,1.54,1.54,0,0,1,0,.38,1.26,1.26,0,0,1-.24.33,1.87,1.87,0,0,1-.28.24,1.55,1.55,0,0,1-.38,0h-.24a1,1,0,0,1-.33,0,1.23,1.23,0,0,1-.56-.56,1.54,1.54,0,0,1,0-.38.83.83,0,0,1,.09-.38.7.7,0,0,1,.19-.33l.33-.19a2.18,2.18,0,0,1,.42,0m-1.13,3.24a1.26,1.26,0,0,1,.24-.33,2.47,2.47,0,0,1,.38-.24,1.26,1.26,0,0,1,.47-.09h.19a.93.93,0,0,1,.42.09,2.09,2.09,0,0,1,.38.19,1.05,1.05,0,0,1,.33.8.93.93,0,0,1-.09.42,1.26,1.26,0,0,1-.24.33,1.84,1.84,0,0,1-.42.24,2.65,2.65,0,0,1-.52,0,2.4,2.4,0,0,1-.47,0,1.84,1.84,0,0,1-.42-.24,1.26,1.26,0,0,1-.24-.33,1,1,0,0,1,0-.85M72,210.91a1.94,1.94,0,0,0-1.27-.42,2.07,2.07,0,0,0-1.27.42A1.54,1.54,0,0,0,69,212a2.39,2.39,0,0,0,0,.47q.09.24.19.42a1.64,1.64,0,0,0,.33.33.7.7,0,0,0,.33.19v0a1,1,0,0,0-.42.19,1.29,1.29,0,0,0-.38.33,1.65,1.65,0,0,0-.24.47,2.39,2.39,0,0,0,0,.47,1.45,1.45,0,0,0,.14.66,1.15,1.15,0,0,0,.42.52,1.66,1.66,0,0,0,.61.33,2.26,2.26,0,0,0,.8.14,2.13,2.13,0,0,0,.75-.14,1.66,1.66,0,0,0,.61-.33,1.15,1.15,0,0,0,.42-.52,1.57,1.57,0,0,0,.14-.71,2.64,2.64,0,0,0,0-.52,1.25,1.25,0,0,0-.28-.42,1.64,1.64,0,0,0-.33-.33,1.48,1.48,0,0,0-.47-.19,2.47,2.47,0,0,0,.38-.24,1.64,1.64,0,0,0,.33-.33,1,1,0,0,0,.19-.42,1.75,1.75,0,0,0,0-.42,1.92,1.92,0,0,0-.09-.61,1.62,1.62,0,0,0-.42-.52m-2.21.85a.7.7,0,0,1,.19-.33l.33-.19a2.18,2.18,0,0,1,.42,0,1.75,1.75,0,0,1,.42,0,1.06,1.06,0,0,1,.38.19.7.7,0,0,1,.19.33.83.83,0,0,1,.09.38,1.54,1.54,0,0,1,0,.38,1.26,1.26,0,0,1-.24.33,1.87,1.87,0,0,1-.28.24,1.55,1.55,0,0,1-.38,0h-.24a1,1,0,0,1-.33,0,1.23,1.23,0,0,1-.56-.56,1.54,1.54,0,0,1,0-.38.83.83,0,0,1,.09-.38m.42,2.12a1.26,1.26,0,0,1,.47-.09h.19a.93.93,0,0,1,.42.09,2.09,2.09,0,0,1,.38.19,1.05,1.05,0,0,1,.33.8.93.93,0,0,1-.09.42,1.26,1.26,0,0,1-.24.33,1.84,1.84,0,0,1-.42.24,2.65,2.65,0,0,1-.52,0,2.4,2.4,0,0,1-.47,0,1.84,1.84,0,0,1-.42-.24,1.26,1.26,0,0,1-.24-.33,1,1,0,0,1,0-.85,1.26,1.26,0,0,1,.24-.33,2.47,2.47,0,0,1,.38-.24m-13.88.47h-.85V212.7h-.66v1.65H53l2.31-3.76h-.75l-2.45,3.95v.52h2.73v1.46h.66v-1.46h.85v-.71m4.42-2.92a1.62,1.62,0,0,0-.42-.52,1.94,1.94,0,0,0-1.27-.42,2.07,2.07,0,0,0-1.27.42,1.54,1.54,0,0,0-.47,1.13,2.39,2.39,0,0,0,0,.47q.09.24.19.42a1.64,1.64,0,0,0,.33.33.7.7,0,0,0,.33.19v0a1,1,0,0,0-.42.19,1.29,1.29,0,0,0-.38.33,1.65,1.65,0,0,0-.24.47,2.39,2.39,0,0,0,0,.47,1.45,1.45,0,0,0,.14.66,1.15,1.15,0,0,0,.42.52,1.66,1.66,0,0,0,.61.33,2.26,2.26,0,0,0,.8.14,2.13,2.13,0,0,0,.75-.14,1.66,1.66,0,0,0,.61-.33,1.15,1.15,0,0,0,.42-.52,1.57,1.57,0,0,0,.14-.71,2.64,2.64,0,0,0,0-.52,1.25,1.25,0,0,0-.28-.42,1.64,1.64,0,0,0-.33-.33,1.48,1.48,0,0,0-.47-.19,2.47,2.47,0,0,0,.38-.24,1.64,1.64,0,0,0,.33-.33,1,1,0,0,0,.19-.42,1.75,1.75,0,0,0,0-.42,1.92,1.92,0,0,0-.09-.61m-2.45,0,.33-.19a2.18,2.18,0,0,1,.42,0,1.75,1.75,0,0,1,.42,0,1.06,1.06,0,0,1,.38.19.7.7,0,0,1,.19.33.83.83,0,0,1,.09.38,1.54,1.54,0,0,1,0,.38,1.26,1.26,0,0,1-.24.33,1.87,1.87,0,0,1-.28.24,1.55,1.55,0,0,1-.38,0H59a1,1,0,0,1-.33,0,1.23,1.23,0,0,1-.56-.56,1.54,1.54,0,0,1,0-.38.83.83,0,0,1,.09-.38.7.7,0,0,1,.19-.33m-.38,3a1.26,1.26,0,0,1,.24-.33,2.47,2.47,0,0,1,.38-.24,1.26,1.26,0,0,1,.47-.09h.19a.93.93,0,0,1,.42.09,2.09,2.09,0,0,1,.38.19,1.05,1.05,0,0,1,.33.8.93.93,0,0,1-.09.42,1.26,1.26,0,0,1-.24.33,1.84,1.84,0,0,1-.42.24,2.65,2.65,0,0,1-.52,0,2.4,2.4,0,0,1-.47,0,1.84,1.84,0,0,1-.42-.24,1.26,1.26,0,0,1-.24-.33,1,1,0,0,1,0-.85m-18.12-11.8a2.26,2.26,0,0,0-.8.14,1.43,1.43,0,0,0-.61.42,1.83,1.83,0,0,0-.42.66,2.74,2.74,0,0,0-.09.75,2,2,0,0,0,.52,1.46,1.83,1.83,0,0,0,.66.42,2.4,2.4,0,0,0,.85.14,2.26,2.26,0,0,0,.8-.14,1.69,1.69,0,0,0,.61-.38l-.19-.52a1.67,1.67,0,0,1-.52.28A2.09,2.09,0,0,1,40,206a2.65,2.65,0,0,1-.52,0,1.84,1.84,0,0,1-.42-.24,2,2,0,0,1-.28-.38,1,1,0,0,1-.09-.47h2.92l0-.47a1.77,1.77,0,0,0-.14-.71,1.16,1.16,0,0,0-.38-.52,1.13,1.13,0,0,0-.56-.38,1.77,1.77,0,0,0-.71-.14m.42.71.33.19a1.26,1.26,0,0,1,.24.33.93.93,0,0,1,.09.42H38.6a.62.62,0,0,1,.14-.38,1.26,1.26,0,0,1,.24-.33,1.1,1.1,0,0,1,.38-.24,2,2,0,0,1,.47,0,1.75,1.75,0,0,1,.42,0m5.74,3.2v-3.81h-.71v1.55H43.16v-1.55H42.5v3.81h.66v-1.6h2.12v1.6H46m1.84-3.81h-.66v3.81h.66v-1.6h2.12v1.6h.71v-3.81h-.71v1.55H47.82v-1.55m6.4.28a.84.84,0,0,0-.42-.28,2.09,2.09,0,0,0-.66-.09,2.56,2.56,0,0,0-.71.09,2.38,2.38,0,0,0-.56.28l.14.52a2.1,2.1,0,0,1,.52-.19,1.78,1.78,0,0,1,.56-.09.93.93,0,0,1,.42.09.45.45,0,0,1,.24.19,1.84,1.84,0,0,1,.14.38l0,.56a1,1,0,0,0-.42-.19,2.65,2.65,0,0,0-.52,0,3.73,3.73,0,0,0-.61,0,1.84,1.84,0,0,0-.42.24,3.53,3.53,0,0,0-.33.38,1.47,1.47,0,0,0,0,1,1.26,1.26,0,0,0,.24.33.6.6,0,0,0,.38.24,1,1,0,0,0,.47.09,1.77,1.77,0,0,0,.71-.14,2,2,0,0,0,.52-.38v.47h.66v-2.35a2.08,2.08,0,0,0-.09-.66,1.66,1.66,0,0,0-.28-.52m-.66,1.83a1.06,1.06,0,0,1,.38.19v.47a1.15,1.15,0,0,1-1,.47.85.85,0,0,1-.52-.14.76.76,0,0,1-.14-.47.46.46,0,0,1,.24-.42.77.77,0,0,1,.56-.19,1.26,1.26,0,0,1,.47.09m-29-2.12h-.71v1.55H21.7v-1.55H21v3.81h.66v-1.6h2.12v1.6h.71v-3.81m4,0a1.66,1.66,0,0,0-.61.33,1.3,1.3,0,0,0-.38.52,1.46,1.46,0,0,0-.24.61h-.85v-1.5H25.7v3.81h.71v-1.6h.85a2,2,0,0,0,.19.66,1.49,1.49,0,0,0,.42.56,1.28,1.28,0,0,0,.56.33,1.9,1.9,0,0,0,.75.14,2.26,2.26,0,0,0,.8-.14,2,2,0,0,0,.61-.42,1.83,1.83,0,0,0,.42-.66,2,2,0,0,0,.14-.8,1.89,1.89,0,0,0-.14-.75,1.83,1.83,0,0,0-.42-.66,1.43,1.43,0,0,0-.61-.42,2.26,2.26,0,0,0-.8-.14,1.77,1.77,0,0,0-.71.14m1.6.89a1.84,1.84,0,0,1,.24.42,1.38,1.38,0,0,1,.09.52,1.52,1.52,0,0,1-.09.56,1.84,1.84,0,0,1-.24.42,2.47,2.47,0,0,1-.38.24,1.38,1.38,0,0,1-.52.09,1.26,1.26,0,0,1-.47-.09,1.1,1.1,0,0,1-.38-.24,1.25,1.25,0,0,1-.28-.42,2.92,2.92,0,0,1,0-.56,2.64,2.64,0,0,1,0-.52,1.25,1.25,0,0,1,.28-.42,1.1,1.1,0,0,1,.38-.24,1.26,1.26,0,0,1,.47-.09,1.38,1.38,0,0,1,.52.09,2.47,2.47,0,0,1,.38.24m4.75-.94h-.66v3.15H32.76v-3.15H32.1v3.81h4.85v-3.81h-.71v3.15H34.83v-3.15M5.61,201.27v-.66H2.27v5.92l1.41,0a3.13,3.13,0,0,0,1-.14,1.72,1.72,0,0,0,.71-.38,1.49,1.49,0,0,0,.42-.56,1.76,1.76,0,0,0,.19-.8,1.89,1.89,0,0,0-.14-.75,1.49,1.49,0,0,0-.42-.56,3.23,3.23,0,0,0-.66-.33,3.73,3.73,0,0,0-.89-.09q-.42,0-.89,0v-1.74H5.61m-.71,2.63a1.1,1.1,0,0,1,.24.38,1.22,1.22,0,0,1,0,.94,1.1,1.1,0,0,1-.24.38,1.65,1.65,0,0,1-.47.24,3.73,3.73,0,0,1-.61,0H3v-2.21l.89,0a1.52,1.52,0,0,1,.56.09,1.06,1.06,0,0,1,.47.19m11.67-.71a2.23,2.23,0,0,0-.38,2.21,2.25,2.25,0,0,0,.38.66,2.14,2.14,0,0,0,1.51.56,2.26,2.26,0,0,0,.8-.14A1.84,1.84,0,0,0,20,205.41a2,2,0,0,0,.14-.8,1.89,1.89,0,0,0-.14-.75,1.84,1.84,0,0,0-1.08-1.08,2.26,2.26,0,0,0-.8-.14,2.4,2.4,0,0,0-.85.14,1.83,1.83,0,0,0-.66.42m.28,2a1.52,1.52,0,0,1-.09-.56,1.38,1.38,0,0,1,.09-.52,1.25,1.25,0,0,1,.28-.42,1.37,1.37,0,0,1,1.88,0,1.25,1.25,0,0,1,.28.42,1.38,1.38,0,0,1,.09.52,1.52,1.52,0,0,1-.09.56,1.3,1.3,0,0,1-.71.71,1.47,1.47,0,0,1-1,0,1.3,1.3,0,0,1-.71-.71m-8.94.89a.41.41,0,0,0-.14-.28.46.46,0,0,0-.66,0,.32.32,0,0,0-.14.28.51.51,0,0,0,.14.38.46.46,0,0,0,.66,0,.51.51,0,0,0,.14-.38m3.86-5.45h-.71v5.92h.71v-5.92m3.62,0h-.85l-2.64,2.82,2.68,3.1h.94l-2.78-3.15,2.64-2.77m85.65,5a.45.45,0,0,0-.33.14.32.32,0,0,0-.14.28.51.51,0,0,0,.14.38.46.46,0,0,0,.66,0,.51.51,0,0,0,.14-.38.41.41,0,0,0-.14-.28.45.45,0,0,0-.33-.14m-5-5h-.66v4.89a2,2,0,0,0,0,.47.71.71,0,0,0,.19.38.45.45,0,0,0,.24.19,1.55,1.55,0,0,0,.38,0,2.65,2.65,0,0,0,.52,0,2.47,2.47,0,0,0,.38-.24l-.14-.52a.75.75,0,0,1-.47.19.34.34,0,0,1-.33-.19.93.93,0,0,1-.14-.56v-4.61m2.4,2.12v-1.08H97.7v3.43a2.08,2.08,0,0,0,.09.66,1.06,1.06,0,0,0,.19.47.86.86,0,0,0,.38.28,1.52,1.52,0,0,0,.56.09,2.65,2.65,0,0,0,.52,0,1.84,1.84,0,0,0,.42-.24l-.19-.56a.94.94,0,0,1-.61.24.63.63,0,0,1-.52-.24,1.4,1.4,0,0,1-.14-.71v-1.65h1.36v-.66H98.41m5.74,0a1.52,1.52,0,0,0-.56.09,1.36,1.36,0,0,0-.42.42v-.47h-.66v3.81h.66v-2.68a1,1,0,0,1,.38-.42.69.69,0,0,1,.42-.14,1,1,0,0,1,.52.14l.24-.61a.94.94,0,0,0-.56-.14m4.56,0h-.66v2.68a1.15,1.15,0,0,1-.52.42,1.35,1.35,0,0,1-.61.14,1.75,1.75,0,0,1-.42,0,.71.71,0,0,1-.28-.24.7.7,0,0,1-.19-.33,2.64,2.64,0,0,1,0-.52v-2.12h-.71V205a2.26,2.26,0,0,0,.09.71,1.17,1.17,0,0,0,.28.52,2.19,2.19,0,0,0,.42.33,1.92,1.92,0,0,0,.61.09,1.49,1.49,0,0,0,.75-.19,1.87,1.87,0,0,0,.61-.47v.56h.66v-3.81M76.48,200.9a3.08,3.08,0,0,0-.38.47,1.5,1.5,0,0,0-.19.56l.56.24a1.68,1.68,0,0,1,.14-.42,1.2,1.2,0,0,1,.28-.28,1.09,1.09,0,0,1,.28-.19,1.55,1.55,0,0,1,.38,0,1.75,1.75,0,0,1,.42,0,1.87,1.87,0,0,1,.28.24.46.46,0,0,1,.19.28,1.54,1.54,0,0,1,0,.38,2.39,2.39,0,0,1,0,.47l-.19.47a5.87,5.87,0,0,1-.71,1.08A24,24,0,0,1,75.87,206v.56h3.62v-.66H76.76l1.41-1.41.42-.61a3.79,3.79,0,0,0,.33-.61,3.53,3.53,0,0,0,.24-.61,2.23,2.23,0,0,0,.09-.61,1.25,1.25,0,0,0-.14-.56,1.87,1.87,0,0,0-.28-.47,1.32,1.32,0,0,0-.52-.33,2.56,2.56,0,0,0-.71-.09,1.93,1.93,0,0,0-.61.09,2.6,2.6,0,0,0-.52.24m4.52-.14a1.29,1.29,0,0,0-.38.33l-.28.38.38.47a1.35,1.35,0,0,1,1.22-.71,1.75,1.75,0,0,1,.42,0,.46.46,0,0,1,.28.19.74.74,0,0,1,.19.28.93.93,0,0,1,.09.42.83.83,0,0,1-.09.38.59.59,0,0,1-.24.33,1.26,1.26,0,0,1-.33.24,1.55,1.55,0,0,1-.38,0h-.42v.71h.47a2.65,2.65,0,0,1,.52,0,2.47,2.47,0,0,1,.38.24,1.26,1.26,0,0,1,.24.33,1,1,0,0,1,0,.85,1.26,1.26,0,0,1-.24.33,1.1,1.1,0,0,1-.38.24,2,2,0,0,1-.47,0,1.75,1.75,0,0,1-.42,0,1.84,1.84,0,0,1-.38-.14.93.93,0,0,1-.33-.28,1.26,1.26,0,0,1-.24-.33l-.42.47a5,5,0,0,0,.28.42,2.19,2.19,0,0,0,.42.33,1.46,1.46,0,0,0,.52.19,1.78,1.78,0,0,0,.56.09,1.9,1.9,0,0,0,.75-.14,1.66,1.66,0,0,0,.61-.33,1.8,1.8,0,0,0,.52-1.27,1.65,1.65,0,0,0-.09-.52,1,1,0,0,0-.19-.42,3.53,3.53,0,0,0-.38-.33,2.68,2.68,0,0,0-.47-.14v0a2.47,2.47,0,0,0,.38-.24.93.93,0,0,0,.28-.33.71.71,0,0,0,.19-.38,2.39,2.39,0,0,0,0-.47,1.92,1.92,0,0,0-.09-.61,1.79,1.79,0,0,0-.33-.47,2.91,2.91,0,0,0-.52-.33,2.56,2.56,0,0,0-.71-.09,1.38,1.38,0,0,0-.52.09,1.67,1.67,0,0,0-.47.14m6.21,2.82a.58.58,0,0,0-.47.24.63.63,0,0,0-.24.52.72.72,0,0,0,.24.52.64.64,0,0,0,.47.19.7.7,0,0,0,.52-.19.72.72,0,0,0,.24-.52.81.81,0,0,0-.75-.75m5.84-.85a1.38,1.38,0,0,0-.52-.09,2.4,2.4,0,0,0-.85.14,1.83,1.83,0,0,0-.66.42,2,2,0,0,0-.56,1.46,3.28,3.28,0,0,0,.09.8,2.47,2.47,0,0,0,.38.61,1.43,1.43,0,0,0,.61.42,2.75,2.75,0,0,0,.75.09,1.92,1.92,0,0,0,.61-.09,1.49,1.49,0,0,0,.56-.42v.47h.71v-5.92h-.71v2.3a1,1,0,0,0-.42-.19m-.52.56a2.4,2.4,0,0,1,.47,0,3.29,3.29,0,0,1,.47.24v1.88a.91.91,0,0,1-.47.38,1.35,1.35,0,0,1-.61.14,1.27,1.27,0,0,1-.89-.38,1.07,1.07,0,0,1-.24-.42,1.38,1.38,0,0,1-.09-.52,1.52,1.52,0,0,1,.09-.56,1.25,1.25,0,0,1,.28-.42,1.44,1.44,0,0,1,1-.38m-32.47,2.4a.51.51,0,0,0-.38.14.46.46,0,0,0-.09.33.51.51,0,0,0,.09.28.32.32,0,0,0,.24.09.15.15,0,0,0,.14-.09.59.59,0,0,1,0,.42.67.67,0,0,1-.56.56l.19.33a.72.72,0,0,0,.38-.19,1.26,1.26,0,0,0,.33-.24l.19-.38a2.18,2.18,0,0,0,0-.42,1,1,0,0,0-.19-.61.46.46,0,0,0-.42-.24m-2.73-3a2.75,2.75,0,0,0-.75.09,1.17,1.17,0,0,0-.52.28,1.29,1.29,0,0,0-.33.38,1.38,1.38,0,0,0-.09.52.93.93,0,0,0,.09.42,2.58,2.58,0,0,0,.14.33.92.92,0,0,0,.61.33l-1.13,1.46h.85l.94-1.27h.71v1.27h.71v-3.81H57.33m.52.66v1.22h-.75a1,1,0,0,1-.52-.14.68.68,0,0,1,0-.94,1.29,1.29,0,0,1,.66-.14h.61m13.41.56v.61h3.53V204H71.26M68,202.21l.85-.66v5h.71v-6H69l-1.46,1.13.38.52m-1.46-.75a1.87,1.87,0,0,0-.28-.47,1.32,1.32,0,0,0-.52-.33,2.56,2.56,0,0,0-.71-.09,1.93,1.93,0,0,0-.61.09,2.6,2.6,0,0,0-.52.24,3.08,3.08,0,0,0-.38.47,1.5,1.5,0,0,0-.19.56l.56.24a1.68,1.68,0,0,1,.14-.42,1.2,1.2,0,0,1,.28-.28,1.09,1.09,0,0,1,.28-.19,1.55,1.55,0,0,1,.38,0,1.75,1.75,0,0,1,.42,0,1.87,1.87,0,0,1,.28.24.46.46,0,0,1,.19.28,1.54,1.54,0,0,1,0,.38,2.39,2.39,0,0,1,0,.47l-.19.47a5.87,5.87,0,0,1-.71,1.08A24,24,0,0,1,63.26,206v.56h3.62v-.66H64.15l1.41-1.41.42-.61a3.79,3.79,0,0,0,.33-.61,3.53,3.53,0,0,0,.24-.61,2.23,2.23,0,0,0,.09-.61A1.25,1.25,0,0,0,66.5,201.46Z"/></g><g id="Layer0_0_MEMBER_0_FILL-3" data-name="Layer0 0 MEMBER 0 FILL"><path class="cls-2" d="M.3,193.47H110.42V127.56H.3Z"/></g><g id="Layer0_0_MEMBER_1_FILL-3" data-name="Layer0 0 MEMBER 1 FILL"><path d="M106.53,189.54V131.48H4.27v58.06Z"/></g><g id="Layer0_0_MEMBER_2_FILL-2" data-name="Layer0 0 MEMBER 2 FILL"><path class="cls-3" d="M105.52,188.59v-56.1H5.28v56.1Z"/></g><g id="Layer0_0_MEMBER_3_FILL" data-name="Layer0 0 MEMBER 3 FILL"><path d="M104.58,187.53V133.44H6.4v54.09Z"/></g><g id="Layer0_0_MEMBER_4_FILL" data-name="Layer0 0 MEMBER 4 FILL"><path class="cls-3" d="M14.33,178.31V181h.41v-2.72H16V178H13v.35Z"/></g><g id="Layer0_0_MEMBER_5_MEMBER_0_FILL" data-name="Layer0 0 MEMBER 5 MEMBER 0 FILL"><path class="cls-3" d="M17.94,180.08h-.47q.06,1,1.48,1t1.42-.95a.69.69,0,0,0-.71-.77l-1.12-.18q-.53-.06-.53-.41,0-.59.83-.59t1,.59h.47q-.06-.89-1.36-.89t-1.36.89q0,.71,1.18.89t1.18.47q0,.59-1,.59T17.94,180.08Z"/></g><g id="Layer0_0_MEMBER_5_MEMBER_1_FILL" data-name="Layer0 0 MEMBER 5 MEMBER 1 FILL"><path class="cls-3" d="M22.19,179.79q0,1.3,1.42,1.3t1.48-1.3V178h-.47v1.83q0,.95-1,.95a.84.84,0,0,1-.95-.95V178h-.47Z"/></g><g id="Layer0_0_MEMBER_5_MEMBER_2_FILL" data-name="Layer0 0 MEMBER 5 MEMBER 2 FILL"><path class="cls-3" d="M31.18,178h-.71l-1.36,2.72L27.75,178H27.1V181h.41v-2.78L28.94,181h.47l1.36-2.78V181h.41Z"/></g><g id="Layer0_0_MEMBER_5_MEMBER_3_FILL" data-name="Layer0 0 MEMBER 5 MEMBER 3 FILL"><path class="cls-2" d="M37.26,181.24V178H34v3.19Z"/></g><g id="Layer0_0_MEMBER_5_MEMBER_4_FILL" data-name="Layer0 0 MEMBER 5 MEMBER 4 FILL"><path class="cls-3" d="M40.76,178.43a1.35,1.35,0,0,1,.71-.18,1.06,1.06,0,0,1,.65.18.65.65,0,0,1,.24.41h.47a.64.64,0,0,0-.18-.47.7.7,0,0,0-.47-.35l-.77-.12-.71.12-.47.3a1,1,0,0,0-.18.47l.18.35a.86.86,0,0,0,.41.3l1.42.3.3.24a.3.3,0,0,1,0,.47.27.27,0,0,1-.3.18l-.53.12-.59-.12a.67.67,0,0,1-.35-.24l-.18-.35h-.47a.62.62,0,0,0,.24.53,1.47,1.47,0,0,0,.53.41l.89.12.71-.12.47-.35a.64.64,0,0,0,.18-.47.58.58,0,0,0-.12-.41,1,1,0,0,0-.53-.3L40.7,179l-.12-.3A.35.35,0,0,1,40.76,178.43Z"/></g><g id="Layer0_0_MEMBER_5_MEMBER_5_FILL" data-name="Layer0 0 MEMBER 5 MEMBER 5 FILL"><path class="cls-3" d="M46.09,181h.53v-2.72h1.24V178h-3v.35h1.24Z"/></g><g id="Layer0_0_MEMBER_5_MEMBER_6_FILL" data-name="Layer0 0 MEMBER 5 MEMBER 6 FILL"><path class="cls-3" d="M48.33,180.61V181h.53v-.41Z"/></g><g id="Layer0_0_MEMBER_5_MEMBER_7_FILL" data-name="Layer0 0 MEMBER 5 MEMBER 7 FILL"><path class="cls-3" d="M53.48,178.43l-.3-.3-.47-.12-.59-.06H50.7V181h.47v-1.24h1a1.9,1.9,0,0,0,1.12-.3.9.9,0,0,0,.3-.65l-.12-.41m-.83-.06a.27.27,0,0,1,.3.18l.12.3q0,.35-.18.41a1.18,1.18,0,0,1-.71.18h-1v-1.12h1Z"/></g><g id="Layer0_0_MEMBER_5_MEMBER_8_FILL" data-name="Layer0 0 MEMBER 5 MEMBER 8 FILL"><path class="cls-3" d="M58.15,178H55.43v3h2.84v-.35H55.9v-1.06H58v-.35H55.9v-.89h2.25Z"/></g><g id="Layer0_0_MEMBER_5_MEMBER_9_FILL" data-name="Layer0 0 MEMBER 5 MEMBER 9 FILL"><path class="cls-3" d="M61.34,181h.53v-2.66h1.24V178h-3v.35h1.24Z"/></g><g id="Layer0_0_MEMBER_5_MEMBER_10_FILL" data-name="Layer0 0 MEMBER 5 MEMBER 10 FILL"><path class="cls-3" d="M67.67,178.31V178H65V181h2.84v-.35H65.42v-1.06h2.13v-.35H65.42v-.95Z"/></g><g id="Layer0_0_MEMBER_5_MEMBER_11_FILL" data-name="Layer0 0 MEMBER 5 MEMBER 11 FILL"><path class="cls-3" d="M69.92,181h.47v-1.36h.89l.24.12.24.18.89,1.06h.65l-.65-.83-.47-.41-.3-.12a1.59,1.59,0,0,0,.83-.3.74.74,0,0,0,.24-.53.68.68,0,0,0-.12-.47,1.16,1.16,0,0,0-.41-.3L69.92,178v3m1.72-2.72a.82.82,0,0,1,.59.18.32.32,0,0,1,.24.35l-.12.24a.27.27,0,0,1-.3.18l-.53.06H70.39v-1Z"/></g><g id="Layer0_0_MEMBER_5_MEMBER_12_FILL" data-name="Layer0 0 MEMBER 5 MEMBER 12 FILL"><path class="cls-3" d="M75.6,178.37a1.08,1.08,0,0,1,.65-.12l.65.12a.59.59,0,0,1,.3.47l.47-.06a.64.64,0,0,0-.18-.47A1,1,0,0,0,77,178a1.43,1.43,0,0,0-.71-.12l-.71.06a1.22,1.22,0,0,0-.47.35.57.57,0,0,0-.18.41l.12.35.41.3,1.42.35.35.18.12.24-.12.24a.67.67,0,0,1-.35.24l-.47.06-.59-.12-.41-.24-.18-.35-.47.06.24.53a.73.73,0,0,0,.53.35l.89.12.71-.12a.73.73,0,0,0,.53-.35.57.57,0,0,0,.18-.41.64.64,0,0,0-.18-.47,1,1,0,0,0-.47-.3l-1.6-.41a.27.27,0,0,1-.18-.3A.28.28,0,0,1,75.6,178.37Z"/></g><g id="Layer0_0_MEMBER_5_MEMBER_13_FILL" data-name="Layer0 0 MEMBER 5 MEMBER 13 FILL"><path class="cls-3" d="M81.16,178H79.68V181h1.48l.59-.06.47-.18.24-.24a.73.73,0,0,0,.12-.41.64.64,0,0,0-.18-.47,1,1,0,0,0-.53-.3l.41-.24.12-.41-.12-.35a1,1,0,0,0-.41-.3l-.71-.12m-.95.35,1.36.06.24.18.12.24-.12.3-.3.12-.47.06h-.83v-.95m1.42,1.36a.27.27,0,0,1,.3.18q.12.06.12.3l-.06.24-.18.18-.65.12h-.95v-1.06h.89Z"/></g><g id="Layer0_0_MEMBER_5_MEMBER_14_FILL" data-name="Layer0 0 MEMBER 5 MEMBER 14 FILL"><path class="cls-3" d="M84.76,178h-.47v1.77a1.6,1.6,0,0,0,.12.77,1,1,0,0,0,.47.41,2.31,2.31,0,0,0,1.77,0,.92.92,0,0,0,.47-.47,1.42,1.42,0,0,0,.12-.71V178h-.47v1.77a1.06,1.06,0,0,1-.24.77,1.43,1.43,0,0,1-.83.18l-.53-.06a.54.54,0,0,1-.3-.3l-.12-.59Z"/></g><g id="Layer0_0_MEMBER_5_MEMBER_15_FILL" data-name="Layer0 0 MEMBER 5 MEMBER 15 FILL"><path class="cls-3" d="M92,178.37a.86.86,0,0,0-.41-.3L90.8,178H89.08V181h.53v-1.36h.83l.24.06.3.24L91.8,181h.65l-.65-.83-.41-.41-.35-.18a1.46,1.46,0,0,0,.83-.24.85.85,0,0,0,.3-.59.57.57,0,0,0-.18-.41m-1.18-.06a2.07,2.07,0,0,1,.65.12l.18.35-.12.3-.3.18-.53.06H89.61v-1Z"/></g><g id="Layer0_0_MEMBER_5_MEMBER_16_FILL" data-name="Layer0 0 MEMBER 5 MEMBER 16 FILL"><path class="cls-3" d="M96.71,179.79v.53l-.47.24-.65.12-.71-.12a1.47,1.47,0,0,1-.53-.41,1.18,1.18,0,0,1-.18-.71l.12-.59.24-.3.41-.24.65-.06.47.06.41.18.18.41.47-.12-.3-.47a.94.94,0,0,0-.53-.3,1.83,1.83,0,0,0-.77-.12,2.84,2.84,0,0,0-1,.18,1.35,1.35,0,0,0-.65.59,1.29,1.29,0,0,0-.24.83,1.19,1.19,0,0,0,.24.77,2.36,2.36,0,0,0,.71.59,2.84,2.84,0,0,0,1,.18l.83-.12a2,2,0,0,0,.77-.35v-1.12h-1.6v.35Z"/></g><g id="Layer0_0_MEMBER_5_MEMBER_17_FILL" data-name="Layer0 0 MEMBER 5 MEMBER 17 FILL"><path class="cls-3" d="M59,149.22h1.66v-.77H54.42v.77h1.72l-5.85,15.25-.24.12H48.16v.59h6.33v-.59H51.76a.48.48,0,0,1-.18-.3l4.55-12.77L61,164q.06.47-.18.59H58.39v.59h8.1v-.59h-1.6q-.3-.12-.3-.3Z"/></g><g id="Layer0_0_MEMBER_5_MEMBER_18_FILL" data-name="Layer0 0 MEMBER 5 MEMBER 18 FILL"><path class="cls-3" d="M24.62,149.16h1.54v-.71H19.95v.71h1.83l-5.85,15.25-.3.12H13v3h.71a2.48,2.48,0,0,1,.18-1.18,1.84,1.84,0,0,1,1.89-1.18H30.24a1.84,1.84,0,0,1,1.89,1.18,2.48,2.48,0,0,1,.18,1.18h.77v-3H30.59a1,1,0,0,1-.35-.3l-5.62-15.08m-7.16,15.37a.48.48,0,0,1-.18-.3l4.55-12.77,4.79,12.47a.47.47,0,0,1-.18.59Z"/></g><g id="Layer0_0_MEMBER_5_MEMBER_19_FILL" data-name="Layer0 0 MEMBER 5 MEMBER 19 FILL"><path class="cls-3" d="M97.48,151.59v-3.07H80.68v3.07h.71a2.48,2.48,0,0,1,.18-1.18,1.8,1.8,0,0,1,2-1.18h3.9v15.25H85.53v.59h6.92v-.59H90.68V149.22h4a1.8,1.8,0,0,1,2,1.18,2.48,2.48,0,0,1,.18,1.18Z"/></g><g id="Layer0_0_MEMBER_5_MEMBER_20_FILL" data-name="Layer0 0 MEMBER 5 MEMBER 20 FILL"><path class="cls-3" d="M40.47,169.44V143.72h-.41v25.72Z"/></g><g id="Layer0_0_MEMBER_5_MEMBER_21_FILL" data-name="Layer0 0 MEMBER 5 MEMBER 21 FILL"><path class="cls-3" d="M73.29,169.44V143.72h-.41v25.72Z"/></g></g></g></svg>